<svg id="Livello_1" data-name="Livello 1" xmlns="http://www.w3.org/2000/svg" xmlns:xlink="http://www.w3.org/1999/xlink" viewBox="0 0 30 30"><defs><style>.cls-1{fill:url(#linear-gradient);}.cls-2{fill:url(#linear-gradient-2);}.cls-3{fill:url(#linear-gradient-3);}.cls-4,.cls-53,.cls-58{fill:#010101;}.cls-4{opacity:0.18;}.cls-5{fill:url(#linear-gradient-4);}.cls-6{fill:url(#linear-gradient-5);}.cls-7{fill:url(#linear-gradient-6);}.cls-8{fill:url(#linear-gradient-7);}.cls-9{fill:url(#linear-gradient-8);}.cls-10{fill:url(#linear-gradient-9);}.cls-11{fill:url(#linear-gradient-10);}.cls-12{fill:url(#linear-gradient-11);}.cls-13{fill:url(#linear-gradient-12);}.cls-14{fill:url(#linear-gradient-13);}.cls-15{fill:url(#linear-gradient-14);}.cls-16{fill:url(#linear-gradient-15);}.cls-17{fill:url(#linear-gradient-16);}.cls-18{fill:url(#linear-gradient-17);}.cls-19{fill:url(#linear-gradient-18);}.cls-20{fill:url(#linear-gradient-19);}.cls-21{fill:url(#linear-gradient-20);}.cls-22{fill:url(#linear-gradient-21);}.cls-23{fill:url(#linear-gradient-22);}.cls-24{fill:url(#linear-gradient-23);}.cls-25{fill:url(#linear-gradient-24);}.cls-26{fill:url(#linear-gradient-25);}.cls-27{fill:url(#linear-gradient-26);}.cls-28{fill:url(#linear-gradient-27);}.cls-29{fill:url(#linear-gradient-28);}.cls-30{fill:url(#linear-gradient-29);}.cls-31{fill:url(#linear-gradient-30);}.cls-32{fill:url(#linear-gradient-31);}.cls-33{fill:url(#linear-gradient-32);}.cls-34{fill:url(#linear-gradient-33);}.cls-35{fill:url(#linear-gradient-34);}.cls-36{fill:url(#linear-gradient-35);}.cls-37{fill:url(#linear-gradient-36);}.cls-38{fill:url(#linear-gradient-37);}.cls-39{fill:url(#linear-gradient-38);}.cls-40{fill:url(#linear-gradient-39);}.cls-41{fill:url(#linear-gradient-40);}.cls-42{fill:url(#linear-gradient-41);}.cls-43{fill:url(#linear-gradient-42);}.cls-44{fill:url(#linear-gradient-43);}.cls-45{fill:url(#linear-gradient-44);}.cls-46{fill:url(#linear-gradient-45);}.cls-47{fill:url(#linear-gradient-46);}.cls-48{fill:url(#linear-gradient-47);}.cls-49{fill:url(#linear-gradient-48);}.cls-50{fill:url(#linear-gradient-49);}.cls-51{fill:url(#linear-gradient-50);}.cls-52{fill:url(#linear-gradient-51);}.cls-53{opacity:0.19;}.cls-54{fill:#f9b116;}.cls-55,.cls-57,.cls-59{fill:#fff;}.cls-55{opacity:0.3;}.cls-56{fill:url(#linear-gradient-52);}.cls-57{opacity:0.26;}.cls-58{opacity:0.09;}.cls-59{opacity:0.16;}</style><linearGradient id="linear-gradient" x1="3.41" y1="17.63" x2="15.26" y2="17.63" gradientUnits="userSpaceOnUse"><stop offset="0.02" stop-color="#fab612"/><stop offset="0.24" stop-color="#f4e600"/><stop offset="0.24" stop-color="#f4e600"/><stop offset="0.41" stop-color="#fbcc08"/><stop offset="0.51" stop-color="#fdc30b"/><stop offset="1" stop-color="#983a15"/></linearGradient><linearGradient id="linear-gradient-2" x1="12.2" y1="13.65" x2="5.84" y2="31.73" xlink:href="#linear-gradient"/><linearGradient id="linear-gradient-3" x1="12.07" y1="13.48" x2="7.64" y2="28.58" xlink:href="#linear-gradient"/><linearGradient id="linear-gradient-4" x1="14.87" y1="19.21" x2="27.89" y2="19.21" gradientTransform="translate(-1.14 -1.38) rotate(-0.29)" xlink:href="#linear-gradient"/><linearGradient id="linear-gradient-5" x1="18.57" y1="16.8" x2="25.65" y2="30.77" gradientTransform="translate(-1.14 -1.38) rotate(-0.29)" xlink:href="#linear-gradient"/><linearGradient id="linear-gradient-6" x1="18.04" y1="15.07" x2="23.91" y2="30.09" gradientTransform="translate(-1.14 -1.38) rotate(-0.29)" xlink:href="#linear-gradient"/><linearGradient id="linear-gradient-7" x1="24.57" y1="-22.31" x2="26.19" y2="-22.31" gradientTransform="translate(4.57 -15.51) rotate(96)" xlink:href="#linear-gradient"/><linearGradient id="linear-gradient-8" x1="25.31" y1="-20.45" x2="26.92" y2="-20.45" gradientTransform="translate(2.79 -14.7) rotate(88)" xlink:href="#linear-gradient"/><linearGradient id="linear-gradient-9" x1="15.79" y1="0.07" x2="17.41" y2="0.07" gradientTransform="translate(-0.69 -0.83) rotate(8)" xlink:href="#linear-gradient"/><linearGradient id="linear-gradient-10" x1="13.55" y1="1.47" x2="15.17" y2="1.47" xlink:href="#linear-gradient"/><linearGradient id="linear-gradient-11" x1="10.63" y1="1.94" x2="12.25" y2="1.94" gradientTransform="translate(1.39 1.25) rotate(-8)" xlink:href="#linear-gradient"/><linearGradient id="linear-gradient-12" x1="8.75" y1="1.68" x2="10.37" y2="1.68" gradientTransform="translate(1.99 2.9) rotate(-16)" xlink:href="#linear-gradient"/><linearGradient id="linear-gradient-13" x1="6.65" y1="2.5" x2="8.27" y2="2.5" gradientTransform="translate(2.52 3.11) rotate(-24)" xlink:href="#linear-gradient"/><linearGradient id="linear-gradient-14" x1="3.93" y1="2.19" x2="5.55" y2="2.19" gradientTransform="translate(3.96 3.68) rotate(-32)" xlink:href="#linear-gradient"/><linearGradient id="linear-gradient-15" x1="1.1" y1="1.41" x2="2.72" y2="1.41" gradientTransform="matrix(0.77, -0.64, 0.64, 0.77, 5.66, 4)" xlink:href="#linear-gradient"/><linearGradient id="linear-gradient-16" x1="-0.55" y1="0.13" x2="1.06" y2="0.13" gradientTransform="matrix(0.67, -0.74, 0.74, 0.67, 6.78, 4.92)" xlink:href="#linear-gradient"/><linearGradient id="linear-gradient-17" x1="-2.68" y1="-1.68" x2="-1.07" y2="-1.68" gradientTransform="matrix(0.56, -0.83, 0.83, 0.56, 8.66, 5.3)" xlink:href="#linear-gradient"/><linearGradient id="linear-gradient-18" x1="-4.94" y1="-3.73" x2="-3.32" y2="-3.73" gradientTransform="translate(10.7 5.04) rotate(-64)" xlink:href="#linear-gradient"/><linearGradient id="linear-gradient-19" x1="-7.11" y1="-5.4" x2="-5.5" y2="-5.4" gradientTransform="translate(12.12 4.07) rotate(-72)" xlink:href="#linear-gradient"/><linearGradient id="linear-gradient-20" x1="-8.13" y1="-6.99" x2="-6.52" y2="-6.99" gradientTransform="translate(12.87 3.74) rotate(-80)" xlink:href="#linear-gradient"/><linearGradient id="linear-gradient-21" x1="-8.96" y1="-9.89" x2="-7.34" y2="-9.89" gradientTransform="translate(14.76 3.31) rotate(-88)" xlink:href="#linear-gradient"/><linearGradient id="linear-gradient-22" x1="-9.14" y1="-12.26" x2="-7.52" y2="-12.26" gradientTransform="translate(15.97 2.93) rotate(-96)" xlink:href="#linear-gradient"/><linearGradient id="linear-gradient-23" x1="-9.68" y1="-14.92" x2="-8.07" y2="-14.92" gradientTransform="translate(17.24 1.63) rotate(-104)" xlink:href="#linear-gradient"/><linearGradient id="linear-gradient-24" x1="-9.85" y1="-17.47" x2="-8.23" y2="-17.47" gradientTransform="matrix(-0.37, -0.93, 0.93, -0.37, 18.16, 0.23)" xlink:href="#linear-gradient"/><linearGradient id="linear-gradient-25" x1="-9.39" y1="-19.48" x2="-7.77" y2="-19.48" gradientTransform="translate(18.55 -0.79) rotate(-120)" xlink:href="#linear-gradient"/><linearGradient id="linear-gradient-26" x1="-9.17" y1="-22" x2="-7.55" y2="-22" gradientTransform="matrix(-0.62, -0.79, 0.79, -0.62, 18.94, -2.61)" xlink:href="#linear-gradient"/><linearGradient id="linear-gradient-27" x1="-7.22" y1="-24.94" x2="-5.6" y2="-24.94" gradientTransform="translate(20.4 -3.86) rotate(-136)" xlink:href="#linear-gradient"/><linearGradient id="linear-gradient-28" x1="-6.11" y1="-26.73" x2="-4.49" y2="-26.73" gradientTransform="translate(20.18 -5.33) rotate(-144)" xlink:href="#linear-gradient"/><linearGradient id="linear-gradient-29" x1="-4.06" y1="-28.66" x2="-2.44" y2="-28.66" gradientTransform="translate(20.51 -6.7) rotate(-152)" xlink:href="#linear-gradient"/><linearGradient id="linear-gradient-30" x1="-2.96" y1="-30" x2="-1.35" y2="-30" gradientTransform="matrix(-0.94, -0.34, 0.34, -0.94, 19.43, -8.25)" xlink:href="#linear-gradient"/><linearGradient id="linear-gradient-31" x1="-0.29" y1="-31.15" x2="1.32" y2="-31.15" gradientTransform="translate(19.5 -9.32) rotate(-168)" xlink:href="#linear-gradient"/><linearGradient id="linear-gradient-32" x1="1.61" y1="-33.29" x2="3.23" y2="-33.29" gradientTransform="matrix(-1, -0.07, 0.07, -1, 18.63, -11.82)" xlink:href="#linear-gradient"/><linearGradient id="linear-gradient-33" x1="3.36" y1="-33.37" x2="4.97" y2="-33.37" gradientTransform="matrix(-1, 0.07, -0.07, -1, 17.09, -12.38)" xlink:href="#linear-gradient"/><linearGradient id="linear-gradient-34" x1="6.91" y1="-33.41" x2="8.52" y2="-33.41" gradientTransform="translate(17.23 -13.29) rotate(168)" xlink:href="#linear-gradient"/><linearGradient id="linear-gradient-35" x1="9.19" y1="-34.03" x2="10.81" y2="-34.03" gradientTransform="matrix(-0.94, 0.34, -0.34, -0.94, 15.71, -14.8)" xlink:href="#linear-gradient"/><linearGradient id="linear-gradient-36" x1="11.37" y1="-32.94" x2="12.99" y2="-32.94" gradientTransform="translate(14.49 -14.78) rotate(152)" xlink:href="#linear-gradient"/><linearGradient id="linear-gradient-37" x1="13.82" y1="-32.7" x2="15.44" y2="-32.7" gradientTransform="translate(12.98 -15.78) rotate(144)" xlink:href="#linear-gradient"/><linearGradient id="linear-gradient-38" x1="15.82" y1="-31.48" x2="17.43" y2="-31.48" gradientTransform="translate(11.5 -15.81) rotate(136)" xlink:href="#linear-gradient"/><linearGradient id="linear-gradient-39" x1="18.63" y1="-31.09" x2="20.25" y2="-31.09" gradientTransform="matrix(-0.62, 0.79, -0.79, -0.62, 9.8, -17.11)" xlink:href="#linear-gradient"/><linearGradient id="linear-gradient-40" x1="20.71" y1="-29.01" x2="22.33" y2="-29.01" gradientTransform="translate(8.72 -16.94) rotate(120)" xlink:href="#linear-gradient"/><linearGradient id="linear-gradient-41" x1="21.95" y1="-27.26" x2="23.57" y2="-27.26" gradientTransform="matrix(-0.37, 0.93, -0.93, -0.37, 6.93, -16.37)" xlink:href="#linear-gradient"/><linearGradient id="linear-gradient-42" x1="23.37" y1="-25" x2="25.06" y2="-25" gradientTransform="translate(5.69 -15.94) rotate(104)" xlink:href="#linear-gradient"/><linearGradient id="linear-gradient-43" x1="26.61" y1="-18.35" x2="28.22" y2="-18.35" gradientTransform="translate(1.35 -14.29) rotate(80)" xlink:href="#linear-gradient"/><linearGradient id="linear-gradient-44" x1="26.19" y1="-16.13" x2="27.81" y2="-16.13" gradientTransform="translate(0.16 -12.51) rotate(72)" xlink:href="#linear-gradient"/><linearGradient id="linear-gradient-45" x1="25.7" y1="-13.03" x2="27.32" y2="-13.03" gradientTransform="translate(-0.03 -11.2) rotate(64)" xlink:href="#linear-gradient"/><linearGradient id="linear-gradient-46" x1="25.49" y1="-10.17" x2="27.11" y2="-10.17" gradientTransform="matrix(0.56, 0.83, -0.83, 0.56, -0.53, -10.38)" xlink:href="#linear-gradient"/><linearGradient id="linear-gradient-47" x1="24.98" y1="-7.76" x2="26.59" y2="-7.76" gradientTransform="matrix(0.67, 0.74, -0.74, 0.67, -1.27, -9.32)" xlink:href="#linear-gradient"/><linearGradient id="linear-gradient-48" x1="23.91" y1="-6.14" x2="25.53" y2="-6.14" gradientTransform="matrix(0.77, 0.64, -0.64, 0.77, -2.14, -7.48)" xlink:href="#linear-gradient"/><linearGradient id="linear-gradient-49" x1="22.37" y1="-3.68" x2="23.99" y2="-3.68" gradientTransform="translate(-1.99 -6.25) rotate(32)" xlink:href="#linear-gradient"/><linearGradient id="linear-gradient-50" x1="20.45" y1="-1.64" x2="22.06" y2="-1.64" gradientTransform="translate(-1.69 -4.87) rotate(24)" xlink:href="#linear-gradient"/><linearGradient id="linear-gradient-51" x1="17.63" y1="-0.53" x2="19.12" y2="-0.53" gradientTransform="translate(-0.66 -2.72) rotate(16)" xlink:href="#linear-gradient"/><linearGradient id="linear-gradient-52" x1="5.62" y1="11.37" x2="23.25" y2="11.37" gradientUnits="userSpaceOnUse"><stop offset="0.02" stop-color="#f07e1e"/><stop offset="0.02" stop-color="#f38d1b"/><stop offset="0.04" stop-color="#f7a317"/><stop offset="0.06" stop-color="#fab413"/><stop offset="0.08" stop-color="#fcbf11"/><stop offset="0.11" stop-color="#fec60f"/><stop offset="0.19" stop-color="#fec80f"/><stop offset="0.24" stop-color="#fdc310"/><stop offset="0.3" stop-color="#fab414"/><stop offset="0.34" stop-color="#f7a717"/><stop offset="0.36" stop-color="#f6a018"/><stop offset="0.39" stop-color="#f38e19"/><stop offset="0.43" stop-color="#ee6f1c"/><stop offset="0.44" stop-color="#ed6a1c"/><stop offset="0.45" stop-color="#ee711c"/><stop offset="0.49" stop-color="#f2891b"/><stop offset="0.52" stop-color="#f4981b"/><stop offset="0.55" stop-color="#f59d1b"/><stop offset="0.71" stop-color="#fd1"/><stop offset="0.77" stop-color="#fff"/><stop offset="0.81" stop-color="#ffef86"/><stop offset="0.88" stop-color="#f8ab18"/></linearGradient></defs><title>1st</title><path class="cls-1" d="M14.2,7.42a28.6,28.6,0,0,1-2.81,22.12C11.32,29.65,9,25,9,25s-5.93,2.06-5.59,1.49C10.77,14,9.15,5.72,9.15,5.72Z"/><path class="cls-2" d="M9,25s1.64,3.31,2.2,4.29A26.64,26.64,0,0,0,13.85,9.39L9.3,7.74c0,.27,0,.57,0,.89.12,2.35-.15,9-5.59,17.94A49.15,49.15,0,0,0,9,25Z"/><path class="cls-3" d="M13.93,12.91l-.55.11-3.24.6,0,.35V14A27.21,27.21,0,0,1,6,25.63l-.31.46C7.2,25.62,9,25,9,25S9.5,26,10,27l.15-.27a31.57,31.57,0,0,0,3.72-13.29Z"/><path class="cls-4" d="M14.26,22.76a29.48,29.48,0,0,0,.62-12.39l-.48.19A28.22,28.22,0,0,0,14.26,22.76Z"/><path class="cls-5" d="M14.24,8a28.61,28.61,0,0,0,5,21.73c.08.1,1.92-4.77,1.92-4.77s6.1,1.46,5.71.93C18.31,14.19,19.09,5.76,19.09,5.76Z"/><path class="cls-6" d="M21.16,24.92a49.91,49.91,0,0,0,5.44,1C18.3,14.6,18.72,6.67,18.72,6.67L14.17,8.62a29.11,29.11,0,0,0,5.26,20.72C19.91,28.24,21.16,24.92,21.16,24.92Z"/><path class="cls-7" d="M24.62,25.67l-.35-.42A25.73,25.73,0,0,1,20,17.74a25.68,25.68,0,0,1-.84-2.66c-.09-.32-.15-.58-.18-.75a1.36,1.36,0,0,1,0-.2.31.31,0,0,0,0-.07l-.06-.33-3.84-.33.08.56a31.43,31.43,0,0,0,5,12.85l.17.25c.43-1.1.82-2.14.82-2.14S23,25.37,24.62,25.67Z"/><path class="cls-4" d="M20.09,18.75l-.13.11-1,.72-1.07.57-1.14.41-1.19.26-1.21.08-1.21-.08L12,20.56l-1.14-.41-1.08-.57-.91-.67c-.13.67-.28,1.38-.47,2.13a2.85,2.85,0,0,1,.46.13l-.11.19s-.21.39.52.41a4.16,4.16,0,0,1,.89.08l-.07.21s-.16.42.56.33a3.76,3.76,0,0,1,.89,0l0,.21s-.09.44.61.25a3.37,3.37,0,0,1,.87-.16v.21s0,.45.64.16a4.79,4.79,0,0,1,.84-.28l0,.22s0,.44.65.07a4,4,0,0,1,.8-.4l0,.21s.09.44.65,0a3.81,3.81,0,0,1,.74-.5l.07.2s.16.42.65-.11a3.77,3.77,0,0,1,.66-.6l.1.19s.21.39.63-.2a4.17,4.17,0,0,1,.56-.69l.13.17s.26.37.59-.28l.05-.1C20.5,20.14,20.27,19.42,20.09,18.75Z"/><path class="cls-8" d="M22.87,12.74l2.06.2s.44.05.18-.63a2.76,2.76,0,0,1-.26-1L23,11.15Z"/><path class="cls-9" d="M23,11.53l2.06-.09s.45,0,.1-.65a2.89,2.89,0,0,1-.4-.94L23,9.93Z"/><path class="cls-10" d="M16.38,2.8l.27-2s.06-.44-.63-.2a3.08,3.08,0,0,1-1,.23c-.1.74-.23,1.8-.23,1.8Z"/><path class="cls-11" d="M15.17,2.62l0-2.07s0-.45-.65-.11a3,3,0,0,1-.95.36c0,.75,0,1.82,0,1.82Z"/><path class="cls-12" d="M14,2.61l-.31-2s-.06-.44-.65,0A3,3,0,0,1,12.1,1c.1.74.26,1.8.26,1.8Z"/><path class="cls-13" d="M12.74,2.76l-.59-2S12,.35,11.49.85a2.72,2.72,0,0,1-.81.61c.21.72.52,1.74.52,1.74Z"/><path class="cls-14" d="M11.56,3.09,10.7,1.21s-.18-.41-.64.16a3.29,3.29,0,0,1-.72.72l.76,1.65Z"/><path class="cls-15" d="M10.44,3.57,9.33,1.83s-.24-.38-.61.25a3,3,0,0,1-.62.81c.4.64,1,1.53,1,1.53Z"/><path class="cls-16" d="M9.39,4.21,8.05,2.64s-.29-.35-.57.33A3.08,3.08,0,0,1,7,3.86L8.17,5.24Z"/><path class="cls-17" d="M8.45,5,6.9,3.62s-.33-.3-.52.4A2.82,2.82,0,0,1,6,5c.56.51,1.36,1.21,1.36,1.21Z"/><path class="cls-18" d="M7.62,5.89,5.9,4.75s-.37-.26-.46.47a3,3,0,0,1-.23,1l1.52,1Z"/><path class="cls-19" d="M6.93,6.89,5.07,6s-.41-.19-.39.54a3,3,0,0,1-.09,1c.67.33,1.64.78,1.64.78Z"/><path class="cls-20" d="M6.38,8l-2-.63S4,7.22,4.1,8a3.18,3.18,0,0,1,.06,1l1.73.55Z"/><path class="cls-21" d="M6,9.14,4,8.8s-.45-.08-.23.62a3.51,3.51,0,0,1,.2,1l1.79.3Z"/><path class="cls-22" d="M5.77,10.35,3.7,10.29s-.44,0-.13.65a3,3,0,0,1,.33,1l1.81,0Z"/><path class="cls-23" d="M5.72,11.57l-2.06.23s-.45,0-.05.66a3.24,3.24,0,0,1,.47.9c.74-.07,1.8-.2,1.8-.2Z"/><path class="cls-24" d="M5.83,12.78l-2,.52s-.44.11,0,.66a3,3,0,0,1,.59.83l1.76-.45Z"/><path class="cls-25" d="M6.11,14l-1.9.79s-.42.17.13.65a3.64,3.64,0,0,1,.7.74l1.67-.69Z"/><path class="cls-26" d="M6.56,15.11,4.78,16.16s-.39.22.22.62a2.81,2.81,0,0,1,.8.64l1.56-.93Z"/><path class="cls-27" d="M7.16,16.17,5.54,17.46s-.35.28.31.58a2.82,2.82,0,0,1,.87.53l1.43-1.14Z"/><path class="cls-28" d="M7.9,17.14l-1.42,1.5s-.31.33.39.54a3,3,0,0,1,.93.39c.53-.54,1.25-1.31,1.25-1.31Z"/><path class="cls-29" d="M8.77,18l-1.2,1.68s-.26.37.46.48a2.93,2.93,0,0,1,1,.26l1.06-1.48Z"/><path class="cls-30" d="M9.76,18.73l-1,1.83s-.21.4.52.41a3.34,3.34,0,0,1,1,.12c.35-.66.84-1.61.84-1.61Z"/><path class="cls-31" d="M10.83,19.31l-.69,2s-.16.43.57.33a3.36,3.36,0,0,1,1,0c.25-.7.6-1.71.6-1.71Z"/><path class="cls-32" d="M12,19.74l-.41,2s-.09.44.61.25a2.86,2.86,0,0,1,1-.16l.36-1.78Z"/><path class="cls-33" d="M13.17,20,13,22.07s0,.45.64.16a2.74,2.74,0,0,1,1-.29c0-.75.11-1.82.11-1.82Z"/><path class="cls-34" d="M14.38,20.11l.16,2.06s0,.45.66.07a3,3,0,0,1,.92-.43C16.07,21.06,16,20,16,20Z"/><path class="cls-35" d="M15.6,20l.45,2s.09.44.66,0a3,3,0,0,1,.85-.55c-.15-.74-.39-1.78-.39-1.78Z"/><path class="cls-36" d="M16.8,19.79l.72,1.94s.16.42.65-.11a2.93,2.93,0,0,1,.77-.67c-.26-.71-.64-1.7-.64-1.7Z"/><path class="cls-37" d="M18,19.39l1,1.81s.21.4.63-.2a3.13,3.13,0,0,1,.66-.77c-.35-.66-.86-1.59-.86-1.59Z"/><path class="cls-38" d="M19,18.82l1.23,1.67s.26.36.59-.29a3.38,3.38,0,0,1,.55-.86l-1.08-1.46Z"/><path class="cls-39" d="M20,18.12l1.45,1.47s.31.32.55-.37a3.15,3.15,0,0,1,.43-.92c-.52-.54-1.28-1.3-1.28-1.3Z"/><path class="cls-40" d="M20.92,17.28l1.64,1.25s.35.28.49-.44a3.05,3.05,0,0,1,.3-1L21.91,16Z"/><path class="cls-41" d="M21.68,16.32l1.8,1s.39.22.43-.51a3.29,3.29,0,0,1,.15-1c-.64-.38-1.58-.89-1.58-.89Z"/><path class="cls-42" d="M22.31,15.27l1.92.76s.41.17.35-.56a3.31,3.31,0,0,1,0-1c-.69-.28-1.69-.66-1.69-.66Z"/><path class="cls-43" d="M22.77,14.14l2,.48s.44.11.27-.6a3.27,3.27,0,0,1-.12-1.08l-1.82-.17Z"/><path class="cls-44" d="M23.19,10.52l2-.37s.45-.08,0-.66a2.81,2.81,0,0,1-.53-.88C24,8.74,22.91,9,22.91,9Z"/><path class="cls-45" d="M23,9.32l2-.66s.43-.14-.09-.65a3,3,0,0,1-.64-.79l-1.72.57Z"/><path class="cls-46" d="M22.63,8.15l1.85-.92s.4-.2-.18-.64a2.81,2.81,0,0,1-.75-.69l-1.63.81Z"/><path class="cls-47" d="M22.1,7.05l1.7-1.17s.38-.25-.26-.61a3.25,3.25,0,0,1-.84-.58l-1.49,1Z"/><path class="cls-48" d="M21.43,6,23,4.63s.34-.3-.35-.56a3,3,0,0,1-.9-.46c-.56.5-1.34,1.23-1.34,1.23Z"/><path class="cls-49" d="M20.62,5.11l1.31-1.59s.29-.35-.42-.51a2.93,2.93,0,0,1-1-.33l-1.16,1.4Z"/><path class="cls-50" d="M19.69,4.32l1.08-1.77s.24-.38-.49-.44a3.14,3.14,0,0,1-1-.19l-1,1.55Z"/><path class="cls-51" d="M18.66,3.66l.83-1.9s.18-.41-.55-.37a3,3,0,0,1-1,0L17.2,3Z"/><path class="cls-52" d="M17.55,3.15l.55-2s.13-.43-.59-.29a2.85,2.85,0,0,1-.89.1c-.2.72-.46,1.8-.46,1.8Z"/><path class="cls-53" d="M14.43,2.62a9,9,0,1,0,9,9A9,9,0,0,0,14.43,2.62Zm0,16.78a7.77,7.77,0,1,1,7.77-7.77A7.76,7.76,0,0,1,14.43,19.4Z"/><path class="cls-54" d="M14.43,19.14a7.77,7.77,0,1,1,7.77-7.77A7.76,7.76,0,0,1,14.43,19.14Z"/><path class="cls-55" d="M14.43,4.51a7.16,7.16,0,0,1,7.15,6.73c0-.15,0-.29,0-.44a7.17,7.17,0,0,0-14.33,0c0,.15,0,.29,0,.44A7.16,7.16,0,0,1,14.43,4.51Z"/><path class="cls-56" d="M14.43,2.56a8.82,8.82,0,1,0,8.82,8.81A8.82,8.82,0,0,0,14.43,2.56Zm0,16.41a7.6,7.6,0,1,1,7.6-7.6A7.59,7.59,0,0,1,14.43,19Z"/><path class="cls-57" d="M9.29,4.61A8.78,8.78,0,0,1,23.09,12,8.75,8.75,0,0,0,5.75,9.85,8.74,8.74,0,0,1,9.29,4.61Z"/><path class="cls-58" d="M10,5.23a7.62,7.62,0,0,1,12,6.44A7.58,7.58,0,0,0,10,4.86,7.5,7.5,0,0,0,6.91,9.77,7.59,7.59,0,0,1,10,5.23Z"/><path class="cls-59" d="M18.77,17.61a7.62,7.62,0,0,1-12-6.43,7.59,7.59,0,0,0,15,1.89A7.6,7.6,0,0,1,18.77,17.61Z"/><path class="cls-53" d="M19.58,18.17a8.78,8.78,0,0,1-13.8-7.42,8.75,8.75,0,0,0,17.34,2.18A8.77,8.77,0,0,1,19.58,18.17Z"/><path d="M10.27,14.13v-.26c1-.06,1.08-.11,1.08-.8V9.53c0-.47-.06-.49-.47-.53L10.43,9V8.72a7.69,7.69,0,0,0,1.69-.45v4.8c0,.7.06.74,1.09.8v.26Z"/><path d="M16,11.92c-.12-.41-.32-.68-.74-.68a.43.43,0,0,0-.44.45c0,.3.23.45.6.61.57.25.89.47.89.95a1,1,0,0,1-1.13,1,1.7,1.7,0,0,1-.82-.21c0-.2-.1-.59-.12-.82l.2,0c.12.44.36.82.85.82a.48.48,0,0,0,.5-.47c0-.31-.19-.48-.57-.65s-.89-.43-.89-1A1,1,0,0,1,15.38,11a3.88,3.88,0,0,1,.68.09c0,.17.07.6.1.77Z"/><path d="M18,14.13a.75.75,0,0,1-.3.09c-.44,0-.67-.27-.67-.83v-2h-.48l0-.09.19-.2h.32v-.58l.46-.46.1,0c0,.29,0,.69,0,1h.79a.23.23,0,0,1,0,.29H17.6v1.77c0,.56.22.66.4.66a1,1,0,0,0,.43-.11l.06.18Z"/></svg>