<svg id="Livello_1" data-name="Livello 1" xmlns="http://www.w3.org/2000/svg" xmlns:xlink="http://www.w3.org/1999/xlink" viewBox="0 0 30 30"><defs><style>.cls-1{fill:url(#linear-gradient);}.cls-2{fill:url(#linear-gradient-2);}.cls-3{fill:url(#linear-gradient-3);}.cls-4,.cls-53,.cls-58{fill:#010101;}.cls-4{opacity:0.18;}.cls-5{fill:url(#linear-gradient-4);}.cls-6{fill:url(#linear-gradient-5);}.cls-7{fill:url(#linear-gradient-6);}.cls-8{fill:url(#linear-gradient-7);}.cls-9{fill:url(#linear-gradient-8);}.cls-10{fill:url(#linear-gradient-9);}.cls-11{fill:url(#linear-gradient-10);}.cls-12{fill:url(#linear-gradient-11);}.cls-13{fill:url(#linear-gradient-12);}.cls-14{fill:url(#linear-gradient-13);}.cls-15{fill:url(#linear-gradient-14);}.cls-16{fill:url(#linear-gradient-15);}.cls-17{fill:url(#linear-gradient-16);}.cls-18{fill:url(#linear-gradient-17);}.cls-19{fill:url(#linear-gradient-18);}.cls-20{fill:url(#linear-gradient-19);}.cls-21{fill:url(#linear-gradient-20);}.cls-22{fill:url(#linear-gradient-21);}.cls-23{fill:url(#linear-gradient-22);}.cls-24{fill:url(#linear-gradient-23);}.cls-25{fill:url(#linear-gradient-24);}.cls-26{fill:url(#linear-gradient-25);}.cls-27{fill:url(#linear-gradient-26);}.cls-28{fill:url(#linear-gradient-27);}.cls-29{fill:url(#linear-gradient-28);}.cls-30{fill:url(#linear-gradient-29);}.cls-31{fill:url(#linear-gradient-30);}.cls-32{fill:url(#linear-gradient-31);}.cls-33{fill:url(#linear-gradient-32);}.cls-34{fill:url(#linear-gradient-33);}.cls-35{fill:url(#linear-gradient-34);}.cls-36{fill:url(#linear-gradient-35);}.cls-37{fill:url(#linear-gradient-36);}.cls-38{fill:url(#linear-gradient-37);}.cls-39{fill:url(#linear-gradient-38);}.cls-40{fill:url(#linear-gradient-39);}.cls-41{fill:url(#linear-gradient-40);}.cls-42{fill:url(#linear-gradient-41);}.cls-43{fill:url(#linear-gradient-42);}.cls-44{fill:url(#linear-gradient-43);}.cls-45{fill:url(#linear-gradient-44);}.cls-46{fill:url(#linear-gradient-45);}.cls-47{fill:url(#linear-gradient-46);}.cls-48{fill:url(#linear-gradient-47);}.cls-49{fill:url(#linear-gradient-48);}.cls-50{fill:url(#linear-gradient-49);}.cls-51{fill:url(#linear-gradient-50);}.cls-52{fill:url(#linear-gradient-51);}.cls-53{opacity:0.19;}.cls-54{fill:#b4b4b4;}.cls-55,.cls-57,.cls-59{fill:#fff;}.cls-55{opacity:0.3;}.cls-56{fill:url(#linear-gradient-52);}.cls-57{opacity:0.26;}.cls-58{opacity:0.09;}.cls-59{opacity:0.16;}</style><linearGradient id="linear-gradient" x1="3.25" y1="17.52" x2="15.14" y2="17.52" gradientUnits="userSpaceOnUse"><stop offset="0" stop-color="#3b3b3b"/><stop offset="0.68" stop-color="#f0f0f0"/><stop offset="1" stop-color="#7d7d7e"/></linearGradient><linearGradient id="linear-gradient-2" x1="12.07" y1="13.53" x2="5.69" y2="31.66" xlink:href="#linear-gradient"/><linearGradient id="linear-gradient-3" x1="11.94" y1="13.36" x2="7.49" y2="28.5" xlink:href="#linear-gradient"/><linearGradient id="linear-gradient-4" x1="13.7" y1="17.61" x2="26.75" y2="17.61" xlink:href="#linear-gradient"/><linearGradient id="linear-gradient-5" x1="17.41" y1="15.19" x2="24.51" y2="29.2" xlink:href="#linear-gradient"/><linearGradient id="linear-gradient-6" x1="16.88" y1="13.46" x2="22.76" y2="28.52" xlink:href="#linear-gradient"/><linearGradient id="linear-gradient-7" x1="24.46" y1="-22.19" x2="26.08" y2="-22.19" gradientTransform="translate(4.57 -15.51) rotate(96)" xlink:href="#linear-gradient"/><linearGradient id="linear-gradient-8" x1="25.18" y1="-20.35" x2="26.8" y2="-20.35" gradientTransform="translate(2.79 -14.7) rotate(88)" xlink:href="#linear-gradient"/><linearGradient id="linear-gradient-9" x1="15.65" y1="-0.06" x2="17.27" y2="-0.06" gradientTransform="translate(-0.69 -0.83) rotate(8)" xlink:href="#linear-gradient"/><linearGradient id="linear-gradient-10" x1="13.42" y1="1.32" x2="15.04" y2="1.32" xlink:href="#linear-gradient"/><linearGradient id="linear-gradient-11" x1="10.52" y1="1.77" x2="12.14" y2="1.77" gradientTransform="translate(1.39 1.25) rotate(-8)" xlink:href="#linear-gradient"/><linearGradient id="linear-gradient-12" x1="8.66" y1="1.5" x2="10.28" y2="1.5" gradientTransform="translate(1.99 2.9) rotate(-16)" xlink:href="#linear-gradient"/><linearGradient id="linear-gradient-13" x1="6.58" y1="2.31" x2="8.21" y2="2.31" gradientTransform="translate(2.52 3.11) rotate(-24)" xlink:href="#linear-gradient"/><linearGradient id="linear-gradient-14" x1="3.89" y1="1.99" x2="5.51" y2="1.99" gradientTransform="translate(3.96 3.68) rotate(-32)" xlink:href="#linear-gradient"/><linearGradient id="linear-gradient-15" x1="1.08" y1="1.21" x2="2.7" y2="1.21" gradientTransform="matrix(0.77, -0.64, 0.64, 0.77, 5.66, 4)" xlink:href="#linear-gradient"/><linearGradient id="linear-gradient-16" x1="-0.55" y1="-0.07" x2="1.07" y2="-0.07" gradientTransform="matrix(0.67, -0.74, 0.74, 0.67, 6.78, 4.92)" xlink:href="#linear-gradient"/><linearGradient id="linear-gradient-17" x1="-2.66" y1="-1.88" x2="-1.03" y2="-1.88" gradientTransform="matrix(0.56, -0.83, 0.83, 0.56, 8.66, 5.3)" xlink:href="#linear-gradient"/><linearGradient id="linear-gradient-18" x1="-4.88" y1="-3.92" x2="-3.26" y2="-3.92" gradientTransform="translate(10.7 5.04) rotate(-64)" xlink:href="#linear-gradient"/><linearGradient id="linear-gradient-19" x1="-7.04" y1="-5.58" x2="-5.42" y2="-5.58" gradientTransform="translate(12.12 4.07) rotate(-72)" xlink:href="#linear-gradient"/><linearGradient id="linear-gradient-20" x1="-8.04" y1="-7.16" x2="-6.42" y2="-7.16" gradientTransform="translate(12.87 3.74) rotate(-80)" xlink:href="#linear-gradient"/><linearGradient id="linear-gradient-21" x1="-8.84" y1="-10.05" x2="-7.22" y2="-10.05" gradientTransform="translate(14.76 3.31) rotate(-88)" xlink:href="#linear-gradient"/><linearGradient id="linear-gradient-22" x1="-9" y1="-12.4" x2="-7.38" y2="-12.4" gradientTransform="translate(15.97 2.93) rotate(-96)" xlink:href="#linear-gradient"/><linearGradient id="linear-gradient-23" x1="-9.54" y1="-15.04" x2="-7.91" y2="-15.04" gradientTransform="translate(17.24 1.63) rotate(-104)" xlink:href="#linear-gradient"/><linearGradient id="linear-gradient-24" x1="-9.69" y1="-17.57" x2="-8.07" y2="-17.57" gradientTransform="matrix(-0.37, -0.93, 0.93, -0.37, 18.16, 0.23)" xlink:href="#linear-gradient"/><linearGradient id="linear-gradient-25" x1="-9.22" y1="-19.55" x2="-7.6" y2="-19.55" gradientTransform="translate(18.55 -0.79) rotate(-120)" xlink:href="#linear-gradient"/><linearGradient id="linear-gradient-26" x1="-8.99" y1="-22.05" x2="-7.37" y2="-22.05" gradientTransform="matrix(-0.62, -0.79, 0.79, -0.62, 18.94, -2.61)" xlink:href="#linear-gradient"/><linearGradient id="linear-gradient-27" x1="-7.04" y1="-24.97" x2="-5.42" y2="-24.97" gradientTransform="translate(20.4 -3.86) rotate(-136)" xlink:href="#linear-gradient"/><linearGradient id="linear-gradient-28" x1="-5.93" y1="-26.73" x2="-4.31" y2="-26.73" gradientTransform="translate(20.18 -5.33) rotate(-144)" xlink:href="#linear-gradient"/><linearGradient id="linear-gradient-29" x1="-3.89" y1="-28.64" x2="-2.27" y2="-28.64" gradientTransform="translate(20.51 -6.7) rotate(-152)" xlink:href="#linear-gradient"/><linearGradient id="linear-gradient-30" x1="-2.8" y1="-29.95" x2="-1.18" y2="-29.95" gradientTransform="matrix(-0.94, -0.34, 0.34, -0.94, 19.43, -8.25)" xlink:href="#linear-gradient"/><linearGradient id="linear-gradient-31" x1="-0.14" y1="-31.08" x2="1.48" y2="-31.08" gradientTransform="translate(19.5 -9.32) rotate(-168)" xlink:href="#linear-gradient"/><linearGradient id="linear-gradient-32" x1="1.75" y1="-33.2" x2="3.37" y2="-33.2" gradientTransform="matrix(-1, -0.07, 0.07, -1, 18.63, -11.82)" xlink:href="#linear-gradient"/><linearGradient id="linear-gradient-33" x1="3.47" y1="-33.26" x2="5.09" y2="-33.26" gradientTransform="matrix(-1, 0.07, -0.07, -1, 17.09, -12.38)" xlink:href="#linear-gradient"/><linearGradient id="linear-gradient-34" x1="7.01" y1="-33.29" x2="8.63" y2="-33.29" gradientTransform="translate(17.23 -13.29) rotate(168)" xlink:href="#linear-gradient"/><linearGradient id="linear-gradient-35" x1="9.27" y1="-33.9" x2="10.89" y2="-33.9" gradientTransform="matrix(-0.94, 0.34, -0.34, -0.94, 15.71, -14.8)" xlink:href="#linear-gradient"/><linearGradient id="linear-gradient-36" x1="11.42" y1="-32.8" x2="13.04" y2="-32.8" gradientTransform="translate(14.49 -14.78) rotate(152)" xlink:href="#linear-gradient"/><linearGradient id="linear-gradient-37" x1="13.85" y1="-32.55" x2="15.47" y2="-32.55" gradientTransform="translate(12.98 -15.78) rotate(144)" xlink:href="#linear-gradient"/><linearGradient id="linear-gradient-38" x1="15.82" y1="-31.33" x2="17.44" y2="-31.33" gradientTransform="translate(11.5 -15.81) rotate(136)" xlink:href="#linear-gradient"/><linearGradient id="linear-gradient-39" x1="18.61" y1="-30.94" x2="20.23" y2="-30.94" gradientTransform="matrix(-0.62, 0.79, -0.79, -0.62, 9.8, -17.11)" xlink:href="#linear-gradient"/><linearGradient id="linear-gradient-40" x1="20.66" y1="-28.87" x2="22.28" y2="-28.87" gradientTransform="translate(8.72 -16.94) rotate(120)" xlink:href="#linear-gradient"/><linearGradient id="linear-gradient-41" x1="21.89" y1="-27.12" x2="23.51" y2="-27.12" gradientTransform="matrix(-0.37, 0.93, -0.93, -0.37, 6.93, -16.37)" xlink:href="#linear-gradient"/><linearGradient id="linear-gradient-42" x1="23.28" y1="-24.87" x2="24.97" y2="-24.87" gradientTransform="translate(5.69 -15.94) rotate(104)" xlink:href="#linear-gradient"/><linearGradient id="linear-gradient-43" x1="26.46" y1="-18.27" x2="28.08" y2="-18.27" gradientTransform="translate(1.35 -14.29) rotate(80)" xlink:href="#linear-gradient"/><linearGradient id="linear-gradient-44" x1="26.03" y1="-16.07" x2="27.65" y2="-16.07" gradientTransform="translate(0.16 -12.51) rotate(72)" xlink:href="#linear-gradient"/><linearGradient id="linear-gradient-45" x1="25.53" y1="-12.99" x2="27.15" y2="-12.99" gradientTransform="translate(-0.03 -11.2) rotate(64)" xlink:href="#linear-gradient"/><linearGradient id="linear-gradient-46" x1="25.31" y1="-10.16" x2="26.93" y2="-10.16" gradientTransform="matrix(0.56, 0.83, -0.83, 0.56, -0.53, -10.38)" xlink:href="#linear-gradient"/><linearGradient id="linear-gradient-47" x1="24.8" y1="-7.77" x2="26.42" y2="-7.77" gradientTransform="matrix(0.67, 0.74, -0.74, 0.67, -1.27, -9.32)" xlink:href="#linear-gradient"/><linearGradient id="linear-gradient-48" x1="23.73" y1="-6.18" x2="25.35" y2="-6.18" gradientTransform="matrix(0.77, 0.64, -0.64, 0.77, -2.14, -7.48)" xlink:href="#linear-gradient"/><linearGradient id="linear-gradient-49" x1="22.2" y1="-3.74" x2="23.82" y2="-3.74" gradientTransform="translate(-1.99 -6.25) rotate(32)" xlink:href="#linear-gradient"/><linearGradient id="linear-gradient-50" x1="20.28" y1="-1.73" x2="21.9" y2="-1.73" gradientTransform="translate(-1.69 -4.87) rotate(24)" xlink:href="#linear-gradient"/><linearGradient id="linear-gradient-51" x1="17.47" y1="-0.63" x2="18.96" y2="-0.63" gradientTransform="translate(-0.66 -2.72) rotate(16)" xlink:href="#linear-gradient"/><linearGradient id="linear-gradient-52" x1="5.47" y1="11.25" x2="23.15" y2="11.25" gradientUnits="userSpaceOnUse"><stop offset="0.02" stop-color="#f07e1e"/><stop offset="0.02" stop-color="#f38d1b"/><stop offset="0.04" stop-color="#f7a317"/><stop offset="0.06" stop-color="#fab413"/><stop offset="0.08" stop-color="#fcbf11"/><stop offset="0.11" stop-color="#fec60f"/><stop offset="0.19" stop-color="#fec80f"/><stop offset="0.24" stop-color="#fdc310"/><stop offset="0.3" stop-color="#fab414"/><stop offset="0.34" stop-color="#f7a717"/><stop offset="0.36" stop-color="#f6a018"/><stop offset="0.39" stop-color="#f38e19"/><stop offset="0.43" stop-color="#ee6f1c"/><stop offset="0.44" stop-color="#ed6a1c"/><stop offset="0.45" stop-color="#ee711c"/><stop offset="0.49" stop-color="#f2891b"/><stop offset="0.52" stop-color="#f4981b"/><stop offset="0.55" stop-color="#f59d1b"/><stop offset="0.71" stop-color="#fd1"/><stop offset="0.77" stop-color="#fff"/><stop offset="0.81" stop-color="#ffef86"/><stop offset="0.88" stop-color="#f8ab18"/></linearGradient></defs><title>2nd</title><path class="cls-1" d="M14.07,7.28a28.7,28.7,0,0,1-2.81,22.18c-.07.12-2.39-4.56-2.39-4.56S2.93,27,3.26,26.4C10.64,13.91,9,5.58,9,5.58Z"/><path class="cls-2" d="M8.87,24.9s1.65,3.32,2.21,4.3A26.71,26.71,0,0,0,13.72,9.26L9.16,7.61c0,.27,0,.57,0,.89.12,2.35-.15,9-5.61,18A51,51,0,0,0,8.87,24.9Z"/><path class="cls-3" d="M13.81,12.79l-.56.11L10,13.51l0,.34v.06A27.2,27.2,0,0,1,5.8,25.54L5.49,26c1.57-.47,3.38-1.1,3.38-1.1s.49,1,1,2.06l.15-.27a31.57,31.57,0,0,0,3.73-13.33Z"/><path class="cls-4" d="M14.13,22.67a29.5,29.5,0,0,0,.62-12.43l-.48.19A28.41,28.41,0,0,0,14.13,22.67Z"/><path class="cls-5" d="M14.16,7.8a28.66,28.66,0,0,0,4.91,21.8c.08.11,1.94-4.76,1.94-4.76s6.11,1.49,5.72.95C18.21,14.06,19,5.62,19,5.62Z"/><path class="cls-6" d="M21,24.84a51.24,51.24,0,0,0,5.45,1.07c-8.26-11.44-7.8-19.38-7.8-19.38L14.09,8.45a29.13,29.13,0,0,0,5.16,20.8C19.74,28.15,21,24.84,21,24.84Z"/><path class="cls-7" d="M24.48,25.61l-.35-.43a26.22,26.22,0,0,1-4.22-7.54A27.38,27.38,0,0,1,19.09,15c-.09-.32-.14-.58-.18-.76s0-.15,0-.2a.28.28,0,0,1,0-.06l-.06-.34-3.86-.35.08.56a31.58,31.58,0,0,0,5,12.92l.17.25L21,24.84S22.87,25.29,24.48,25.61Z"/><path class="cls-4" d="M20,18.64l-.12.12-1,.72-1.07.57-1.15.41-1.19.26-1.21.08L13,20.72l-1.19-.26-1.14-.41-1.08-.57-.92-.67c-.12.67-.27,1.38-.46,2.13a2.65,2.65,0,0,1,.45.13l-.1.19s-.21.4.52.41a3.93,3.93,0,0,1,.89.09l-.07.2s-.16.42.57.33a4.41,4.41,0,0,1,.89,0l-.05.22s-.09.43.61.24a4.83,4.83,0,0,1,.88-.16v.22s0,.45.64.16a3.48,3.48,0,0,1,.84-.28l0,.21s0,.45.66.07a3.73,3.73,0,0,1,.8-.39l0,.21s.1.44.66,0a4.69,4.69,0,0,1,.74-.51l.07.21s.16.42.65-.12a4.26,4.26,0,0,1,.66-.6l.1.19s.21.4.63-.2a4,4,0,0,1,.57-.69l.13.18s.26.36.59-.29a.93.93,0,0,0,.05-.1Q20.26,19.66,20,18.64Z"/><path class="cls-8" d="M22.76,12.62l2.07.2s.44,0,.18-.63a3.45,3.45,0,0,1-.27-1C24,11.12,22.93,11,22.93,11Z"/><path class="cls-9" d="M22.9,11.4,25,11.32s.45,0,.1-.66a2.89,2.89,0,0,1-.4-.94l-1.82.08Z"/><path class="cls-10" d="M16.26,2.66,16.53.6s.06-.45-.63-.21a3,3,0,0,1-1,.24c-.1.74-.23,1.8-.23,1.8Z"/><path class="cls-11" d="M15,2.47V.4S15,0,14.38.28a2.88,2.88,0,0,1-1,.37c0,.75,0,1.82,0,1.82Z"/><path class="cls-12" d="M13.82,2.46l-.31-2s-.06-.45-.66,0A2.86,2.86,0,0,1,12,.88c.11.75.27,1.8.27,1.8Z"/><path class="cls-13" d="M12.6,2.62,12,.63S11.89.2,11.36.7a2.88,2.88,0,0,1-.81.61c.2.73.51,1.75.51,1.75Z"/><path class="cls-14" d="M11.42,2.94l-.85-1.88s-.19-.41-.65.16a3,3,0,0,1-.72.72c.31.69.76,1.66.76,1.66Z"/><path class="cls-15" d="M10.3,3.43,9.19,1.68S9,1.3,8.57,1.93A3.14,3.14,0,0,1,8,2.75l1,1.53Z"/><path class="cls-16" d="M9.25,4.07,7.91,2.49s-.29-.34-.57.33a2.91,2.91,0,0,1-.5.9L8,5.1Z"/><path class="cls-17" d="M8.31,4.85,6.76,3.47s-.34-.3-.53.41a2.82,2.82,0,0,1-.36,1C6.43,5.34,7.23,6,7.23,6Z"/><path class="cls-18" d="M7.48,5.75,5.75,4.61s-.37-.26-.46.47a3.19,3.19,0,0,1-.23,1l1.52,1Z"/><path class="cls-19" d="M6.78,6.76,4.91,5.87s-.4-.2-.39.53a3.41,3.41,0,0,1-.08,1c.67.33,1.64.78,1.64.78Z"/><path class="cls-20" d="M6.24,7.85l-2-.62s-.43-.14-.31.58a3,3,0,0,1,0,1c.72.24,1.74.55,1.74.55Z"/><path class="cls-21" d="M5.85,9l-2-.35s-.44-.08-.23.62a3.12,3.12,0,0,1,.2,1l1.8.3Z"/><path class="cls-22" d="M5.62,10.22l-2.07-.06s-.45,0-.14.65a3,3,0,0,1,.33,1l1.82,0Z"/><path class="cls-23" d="M5.57,11.44l-2.06.24s-.45,0,0,.66a2.81,2.81,0,0,1,.46.91L5.73,13Z"/><path class="cls-24" d="M5.68,12.66l-2,.52s-.44.11,0,.66a3.26,3.26,0,0,1,.59.84l1.76-.46Z"/><path class="cls-25" d="M6,13.86l-1.92.79s-.42.17.14.64a2.73,2.73,0,0,1,.69.75l1.69-.7Z"/><path class="cls-26" d="M6.41,15,4.63,16.05s-.39.22.22.62a3.33,3.33,0,0,1,.8.64l1.56-.93Z"/><path class="cls-27" d="M7,16.06,5.39,17.35s-.35.28.31.59a3,3,0,0,1,.88.52L8,17.33Z"/><path class="cls-28" d="M7.76,17l-1.43,1.5s-.31.32.39.53a3.29,3.29,0,0,1,.94.4l1.25-1.32Z"/><path class="cls-29" d="M8.63,17.9l-1.2,1.68s-.27.37.46.48a2.93,2.93,0,0,1,1,.26l1.06-1.48Z"/><path class="cls-30" d="M9.62,18.63l-1,1.83s-.21.4.52.41a3.34,3.34,0,0,1,1,.12c.35-.66.84-1.61.84-1.61Z"/><path class="cls-31" d="M10.69,19.21,10,21.16s-.16.43.57.34a2.93,2.93,0,0,1,1,0c.26-.71.61-1.72.61-1.72Z"/><path class="cls-32" d="M11.84,19.64l-.42,2s-.09.44.62.25a3.17,3.17,0,0,1,1-.16c.16-.73.37-1.78.37-1.78Z"/><path class="cls-33" d="M13,19.91,12.91,22s0,.45.64.16a3,3,0,0,1,1-.3c.06-.75.11-1.82.11-1.82Z"/><path class="cls-34" d="M14.26,20l.16,2.06s0,.45.65.07a2.89,2.89,0,0,1,.93-.43c-.05-.75-.14-1.81-.14-1.81Z"/><path class="cls-35" d="M15.48,19.93l.45,2s.09.44.66,0a2.8,2.8,0,0,1,.85-.56c-.15-.74-.39-1.78-.39-1.78Z"/><path class="cls-36" d="M16.68,19.69l.72,1.94s.16.43.66-.11a2.83,2.83,0,0,1,.76-.67c-.25-.71-.63-1.71-.63-1.71Z"/><path class="cls-37" d="M17.83,19.28l1,1.82s.21.4.63-.2a3.25,3.25,0,0,1,.67-.77c-.35-.66-.87-1.6-.87-1.6Z"/><path class="cls-38" d="M18.92,18.72l1.23,1.67s.27.36.6-.29a3.13,3.13,0,0,1,.55-.86c-.44-.61-1.08-1.46-1.08-1.46Z"/><path class="cls-39" d="M19.92,18l1.45,1.48s.31.32.55-.37a3.57,3.57,0,0,1,.43-.93c-.52-.54-1.28-1.29-1.28-1.29Z"/><path class="cls-40" d="M20.81,17.17l1.64,1.26s.36.28.5-.44a3,3,0,0,1,.29-1L21.8,15.9Z"/><path class="cls-41" d="M21.57,16.21l1.81,1s.39.23.42-.5a3,3,0,0,1,.16-1l-1.58-.9Z"/><path class="cls-42" d="M22.2,15.15l1.92.77s.42.16.36-.56a3.4,3.4,0,0,1,0-1c-.69-.28-1.69-.66-1.69-.66Z"/><path class="cls-43" d="M22.67,14l2,.49s.44.11.27-.61a3.27,3.27,0,0,1-.12-1.08L23,12.65Z"/><path class="cls-44" d="M23.09,10.4l2-.38s.45-.08,0-.66a2.81,2.81,0,0,1-.53-.88c-.74.13-1.79.34-1.79.34Z"/><path class="cls-45" d="M22.89,9.19l2-.66s.43-.14-.09-.65a2.74,2.74,0,0,1-.64-.8l-1.73.58Z"/><path class="cls-46" d="M22.52,8l1.85-.92s.41-.2-.18-.64a3.18,3.18,0,0,1-.75-.7l-1.62.82Z"/><path class="cls-47" d="M22,6.91,23.7,5.74s.37-.25-.27-.61a3,3,0,0,1-.83-.58c-.63.42-1.5,1-1.5,1Z"/><path class="cls-48" d="M21.32,5.89l1.53-1.4s.33-.3-.35-.56a3,3,0,0,1-.91-.46C21,4,20.25,4.7,20.25,4.7Z"/><path class="cls-49" d="M20.51,5l1.32-1.6s.29-.34-.43-.51a2.65,2.65,0,0,1-1-.33c-.49.58-1.16,1.41-1.16,1.41Z"/><path class="cls-50" d="M19.58,4.17l1.08-1.76S20.9,2,20.17,2a3,3,0,0,1-1-.19c-.4.64-1,1.55-1,1.55Z"/><path class="cls-51" d="M18.54,3.51l.83-1.89s.19-.42-.55-.38a3,3,0,0,1-1-.05l-.72,1.67Z"/><path class="cls-52" d="M17.43,3,18,1s.12-.43-.6-.29a2.85,2.85,0,0,1-.89.1c-.21.72-.46,1.8-.46,1.8Z"/><path class="cls-53" d="M14.31,2.47a9,9,0,1,0,9,9A9,9,0,0,0,14.31,2.47Zm0,16.83a7.79,7.79,0,1,1,7.79-7.79A7.79,7.79,0,0,1,14.31,19.3Z"/><path class="cls-54" d="M14.31,19a7.79,7.79,0,1,1,7.79-7.79A7.79,7.79,0,0,1,14.31,19Z"/><path class="cls-55" d="M14.31,4.37a7.17,7.17,0,0,1,7.16,6.75c0-.15,0-.3,0-.44a7.18,7.18,0,1,0-14.36,0c0,.14,0,.29,0,.44A7.19,7.19,0,0,1,14.31,4.37Z"/><path class="cls-56" d="M14.31,2.41a8.84,8.84,0,1,0,8.84,8.84A8.84,8.84,0,0,0,14.31,2.41Zm0,16.46a7.62,7.62,0,1,1,7.62-7.62A7.62,7.62,0,0,1,14.31,18.87Z"/><path class="cls-57" d="M9.15,4.47A8.8,8.8,0,0,1,23,11.91,8.77,8.77,0,0,0,5.6,9.72,8.74,8.74,0,0,1,9.15,4.47Z"/><path class="cls-58" d="M9.83,5.09a7.64,7.64,0,0,1,12,6.45A7.51,7.51,0,0,0,20.49,6.6,7.6,7.6,0,0,0,6.76,9.65,7.6,7.6,0,0,1,9.83,5.09Z"/><path class="cls-59" d="M18.65,17.5a7.63,7.63,0,0,1-12-6.45A7.61,7.61,0,0,0,21.73,13,7.62,7.62,0,0,1,18.65,17.5Z"/><path class="cls-53" d="M19.47,18.07A8.81,8.81,0,0,1,7.21,15.88a8.7,8.7,0,0,1-1.58-5.25,8.66,8.66,0,0,0,1.55,5.69A8.77,8.77,0,0,0,23,12.81,8.82,8.82,0,0,1,19.47,18.07Z"/><path d="M12.17,12.51c-.12.42-.28.89-.37,1.23H8.31v-.22c.51-.5,1.06-1,1.52-1.57A3.77,3.77,0,0,0,11,9.72C11,9,10.56,8.5,9.88,8.5a1.61,1.61,0,0,0-1.28.86l-.21-.19.53-.75a1.68,1.68,0,0,1,1.27-.55,1.51,1.51,0,0,1,1.57,1.6,3,3,0,0,1-1.17,2.24c-.39.41-1,1-1.38,1.36H11c.5,0,.64-.05.95-.63Z"/><path d="M14.71,13.74v-.19c.4,0,.45-.09.45-.56V11.84c0-.49-.18-.81-.64-.81a1.2,1.2,0,0,0-.77.36V13c0,.48.05.5.46.54v.19h-1.5v-.19c.45-.05.5-.08.5-.54V11.58c0-.45-.05-.47-.43-.53v-.18a4.2,4.2,0,0,0,1-.28v.55l.48-.32a1,1,0,0,1,.57-.21c.56,0,.9.41.9,1.08V13c0,.47.05.5.45.54v.19Z"/><path d="M19.94,13.57a7.12,7.12,0,0,0-1.08.26v-.46c-.12.08-.3.18-.43.25a1.26,1.26,0,0,1-.55.21,1.45,1.45,0,0,1-1.29-1.53,1.75,1.75,0,0,1,1.8-1.69,1.22,1.22,0,0,1,.47.08v-1c0-.45-.05-.46-.54-.5V9a7.1,7.1,0,0,0,1.09-.24v4.19c0,.36.05.39.31.42h.22Zm-1.08-2.33a.86.86,0,0,0-.73-.36c-.33,0-.92.22-.92,1.22,0,.84.52,1.29,1,1.29a1.17,1.17,0,0,0,.68-.25Z"/></svg>