<svg id="Livello_1" data-name="Livello 1" xmlns="http://www.w3.org/2000/svg" xmlns:xlink="http://www.w3.org/1999/xlink" viewBox="0 0 30 30"><defs><style>.cls-1{fill:url(#linear-gradient);}.cls-2{fill:url(#linear-gradient-2);}.cls-3{fill:url(#linear-gradient-3);}.cls-4,.cls-53,.cls-58{fill:#010101;}.cls-4{opacity:0.18;}.cls-5{fill:url(#linear-gradient-4);}.cls-6{fill:url(#linear-gradient-5);}.cls-7{fill:url(#linear-gradient-6);}.cls-8{fill:url(#linear-gradient-7);}.cls-9{fill:url(#linear-gradient-8);}.cls-10{fill:url(#linear-gradient-9);}.cls-11{fill:url(#linear-gradient-10);}.cls-12{fill:url(#linear-gradient-11);}.cls-13{fill:url(#linear-gradient-12);}.cls-14{fill:url(#linear-gradient-13);}.cls-15{fill:url(#linear-gradient-14);}.cls-16{fill:url(#linear-gradient-15);}.cls-17{fill:url(#linear-gradient-16);}.cls-18{fill:url(#linear-gradient-17);}.cls-19{fill:url(#linear-gradient-18);}.cls-20{fill:url(#linear-gradient-19);}.cls-21{fill:url(#linear-gradient-20);}.cls-22{fill:url(#linear-gradient-21);}.cls-23{fill:url(#linear-gradient-22);}.cls-24{fill:url(#linear-gradient-23);}.cls-25{fill:url(#linear-gradient-24);}.cls-26{fill:url(#linear-gradient-25);}.cls-27{fill:url(#linear-gradient-26);}.cls-28{fill:url(#linear-gradient-27);}.cls-29{fill:url(#linear-gradient-28);}.cls-30{fill:url(#linear-gradient-29);}.cls-31{fill:url(#linear-gradient-30);}.cls-32{fill:url(#linear-gradient-31);}.cls-33{fill:url(#linear-gradient-32);}.cls-34{fill:url(#linear-gradient-33);}.cls-35{fill:url(#linear-gradient-34);}.cls-36{fill:url(#linear-gradient-35);}.cls-37{fill:url(#linear-gradient-36);}.cls-38{fill:url(#linear-gradient-37);}.cls-39{fill:url(#linear-gradient-38);}.cls-40{fill:url(#linear-gradient-39);}.cls-41{fill:url(#linear-gradient-40);}.cls-42{fill:url(#linear-gradient-41);}.cls-43{fill:url(#linear-gradient-42);}.cls-44{fill:url(#linear-gradient-43);}.cls-45{fill:url(#linear-gradient-44);}.cls-46{fill:url(#linear-gradient-45);}.cls-47{fill:url(#linear-gradient-46);}.cls-48{fill:url(#linear-gradient-47);}.cls-49{fill:url(#linear-gradient-48);}.cls-50{fill:url(#linear-gradient-49);}.cls-51{fill:url(#linear-gradient-50);}.cls-52{fill:url(#linear-gradient-51);}.cls-53{opacity:0.19;}.cls-54{fill:#db840b;}.cls-55,.cls-57,.cls-59{fill:#fff;}.cls-55{opacity:0.3;}.cls-56{fill:url(#linear-gradient-52);}.cls-57{opacity:0.26;}.cls-58{opacity:0.09;}.cls-59{opacity:0.16;}</style><linearGradient id="linear-gradient" x1="3.19" y1="17.65" x2="15.14" y2="17.65" gradientUnits="userSpaceOnUse"><stop offset="0" stop-color="#ac6033"/><stop offset="0.68" stop-color="#de8b33"/><stop offset="1" stop-color="#7d4921"/></linearGradient><linearGradient id="linear-gradient-2" x1="12.06" y1="13.65" x2="5.65" y2="31.85" xlink:href="#linear-gradient"/><linearGradient id="linear-gradient-3" x1="11.93" y1="13.47" x2="7.45" y2="28.68" xlink:href="#linear-gradient"/><linearGradient id="linear-gradient-4" x1="13.69" y1="17.74" x2="26.81" y2="17.74" xlink:href="#linear-gradient"/><linearGradient id="linear-gradient-5" x1="17.42" y1="15.31" x2="24.55" y2="29.39" xlink:href="#linear-gradient"/><linearGradient id="linear-gradient-6" x1="16.89" y1="13.57" x2="22.8" y2="28.7" xlink:href="#linear-gradient"/><linearGradient id="linear-gradient-7" x1="24.55" y1="-22.25" x2="26.18" y2="-22.25" gradientTransform="translate(4.57 -15.51) rotate(96)" xlink:href="#linear-gradient"/><linearGradient id="linear-gradient-8" x1="25.27" y1="-20.39" x2="26.9" y2="-20.39" gradientTransform="translate(2.79 -14.7) rotate(88)" xlink:href="#linear-gradient"/><linearGradient id="linear-gradient-9" x1="15.65" y1="-0.01" x2="17.28" y2="-0.01" gradientTransform="translate(-0.69 -0.83) rotate(8)" xlink:href="#linear-gradient"/><linearGradient id="linear-gradient-10" x1="13.42" y1="1.37" x2="15.05" y2="1.37" xlink:href="#linear-gradient"/><linearGradient id="linear-gradient-11" x1="10.5" y1="1.82" x2="12.12" y2="1.82" gradientTransform="translate(1.39 1.25) rotate(-8)" xlink:href="#linear-gradient"/><linearGradient id="linear-gradient-12" x1="8.63" y1="1.55" x2="10.25" y2="1.55" gradientTransform="translate(1.99 2.9) rotate(-16)" xlink:href="#linear-gradient"/><linearGradient id="linear-gradient-13" x1="6.54" y1="2.35" x2="8.17" y2="2.35" gradientTransform="translate(2.52 3.11) rotate(-24)" xlink:href="#linear-gradient"/><linearGradient id="linear-gradient-14" x1="3.83" y1="2.02" x2="5.46" y2="2.02" gradientTransform="translate(3.96 3.68) rotate(-32)" xlink:href="#linear-gradient"/><linearGradient id="linear-gradient-15" x1="1.01" y1="1.24" x2="2.64" y2="1.24" gradientTransform="matrix(0.77, -0.64, 0.64, 0.77, 5.66, 4)" xlink:href="#linear-gradient"/><linearGradient id="linear-gradient-16" x1="-0.63" y1="-0.05" x2="1" y2="-0.05" gradientTransform="matrix(0.67, -0.74, 0.74, 0.67, 6.78, 4.92)" xlink:href="#linear-gradient"/><linearGradient id="linear-gradient-17" x1="-2.74" y1="-1.87" x2="-1.12" y2="-1.87" gradientTransform="matrix(0.56, -0.83, 0.83, 0.56, 8.66, 5.3)" xlink:href="#linear-gradient"/><linearGradient id="linear-gradient-18" x1="-4.98" y1="-3.93" x2="-3.35" y2="-3.93" gradientTransform="translate(10.7 5.04) rotate(-64)" xlink:href="#linear-gradient"/><linearGradient id="linear-gradient-19" x1="-7.14" y1="-5.6" x2="-5.51" y2="-5.6" gradientTransform="translate(12.12 4.07) rotate(-72)" xlink:href="#linear-gradient"/><linearGradient id="linear-gradient-20" x1="-8.14" y1="-7.2" x2="-6.51" y2="-7.2" gradientTransform="translate(12.87 3.74) rotate(-80)" xlink:href="#linear-gradient"/><linearGradient id="linear-gradient-21" x1="-8.95" y1="-10.09" x2="-7.32" y2="-10.09" gradientTransform="translate(14.76 3.31) rotate(-88)" xlink:href="#linear-gradient"/><linearGradient id="linear-gradient-22" x1="-9.11" y1="-12.46" x2="-7.48" y2="-12.46" gradientTransform="translate(15.97 2.93) rotate(-96)" xlink:href="#linear-gradient"/><linearGradient id="linear-gradient-23" x1="-9.64" y1="-15.11" x2="-8.01" y2="-15.11" gradientTransform="translate(17.24 1.63) rotate(-104)" xlink:href="#linear-gradient"/><linearGradient id="linear-gradient-24" x1="-9.78" y1="-17.66" x2="-8.15" y2="-17.66" gradientTransform="matrix(-0.37, -0.93, 0.93, -0.37, 18.16, 0.23)" xlink:href="#linear-gradient"/><linearGradient id="linear-gradient-25" x1="-9.31" y1="-19.65" x2="-7.68" y2="-19.65" gradientTransform="translate(18.55 -0.79) rotate(-120)" xlink:href="#linear-gradient"/><linearGradient id="linear-gradient-26" x1="-9.07" y1="-22.16" x2="-7.45" y2="-22.16" gradientTransform="matrix(-0.62, -0.79, 0.79, -0.62, 18.94, -2.61)" xlink:href="#linear-gradient"/><linearGradient id="linear-gradient-27" x1="-7.12" y1="-25.09" x2="-5.49" y2="-25.09" gradientTransform="translate(20.4 -3.86) rotate(-136)" xlink:href="#linear-gradient"/><linearGradient id="linear-gradient-28" x1="-5.99" y1="-26.86" x2="-4.36" y2="-26.86" gradientTransform="translate(20.18 -5.33) rotate(-144)" xlink:href="#linear-gradient"/><linearGradient id="linear-gradient-29" x1="-3.94" y1="-28.77" x2="-2.31" y2="-28.77" gradientTransform="translate(20.51 -6.7) rotate(-152)" xlink:href="#linear-gradient"/><linearGradient id="linear-gradient-30" x1="-2.84" y1="-30.09" x2="-1.21" y2="-30.09" gradientTransform="matrix(-0.94, -0.34, 0.34, -0.94, 19.43, -8.25)" xlink:href="#linear-gradient"/><linearGradient id="linear-gradient-31" x1="-0.17" y1="-31.22" x2="1.46" y2="-31.22" gradientTransform="translate(19.5 -9.32) rotate(-168)" xlink:href="#linear-gradient"/><linearGradient id="linear-gradient-32" x1="1.74" y1="-33.35" x2="3.37" y2="-33.35" gradientTransform="matrix(-1, -0.07, 0.07, -1, 18.63, -11.82)" xlink:href="#linear-gradient"/><linearGradient id="linear-gradient-33" x1="3.48" y1="-33.41" x2="5.11" y2="-33.41" gradientTransform="matrix(-1, 0.07, -0.07, -1, 17.09, -12.38)" xlink:href="#linear-gradient"/><linearGradient id="linear-gradient-34" x1="7.02" y1="-33.43" x2="8.65" y2="-33.43" gradientTransform="translate(17.23 -13.29) rotate(168)" xlink:href="#linear-gradient"/><linearGradient id="linear-gradient-35" x1="9.3" y1="-34.04" x2="10.93" y2="-34.04" gradientTransform="matrix(-0.94, 0.34, -0.34, -0.94, 15.71, -14.8)" xlink:href="#linear-gradient"/><linearGradient id="linear-gradient-36" x1="11.47" y1="-32.93" x2="13.1" y2="-32.93" gradientTransform="translate(14.49 -14.78) rotate(152)" xlink:href="#linear-gradient"/><linearGradient id="linear-gradient-37" x1="13.91" y1="-32.68" x2="15.54" y2="-32.68" gradientTransform="translate(12.98 -15.78) rotate(144)" xlink:href="#linear-gradient"/><linearGradient id="linear-gradient-38" x1="15.89" y1="-31.45" x2="17.52" y2="-31.45" gradientTransform="translate(11.5 -15.81) rotate(136)" xlink:href="#linear-gradient"/><linearGradient id="linear-gradient-39" x1="18.69" y1="-31.05" x2="20.32" y2="-31.05" gradientTransform="matrix(-0.62, 0.79, -0.79, -0.62, 9.8, -17.11)" xlink:href="#linear-gradient"/><linearGradient id="linear-gradient-40" x1="20.75" y1="-28.96" x2="22.38" y2="-28.96" gradientTransform="translate(8.72 -16.94) rotate(120)" xlink:href="#linear-gradient"/><linearGradient id="linear-gradient-41" x1="21.97" y1="-27.2" x2="23.6" y2="-27.2" gradientTransform="matrix(-0.37, 0.93, -0.93, -0.37, 6.93, -16.37)" xlink:href="#linear-gradient"/><linearGradient id="linear-gradient-42" x1="23.38" y1="-24.94" x2="25.07" y2="-24.94" gradientTransform="translate(5.69 -15.94) rotate(104)" xlink:href="#linear-gradient"/><linearGradient id="linear-gradient-43" x1="26.55" y1="-18.3" x2="28.18" y2="-18.3" gradientTransform="translate(1.35 -14.29) rotate(80)" xlink:href="#linear-gradient"/><linearGradient id="linear-gradient-44" x1="26.12" y1="-16.08" x2="27.75" y2="-16.08" gradientTransform="translate(0.16 -12.51) rotate(72)" xlink:href="#linear-gradient"/><linearGradient id="linear-gradient-45" x1="25.62" y1="-13" x2="27.24" y2="-13" gradientTransform="translate(-0.03 -11.2) rotate(64)" xlink:href="#linear-gradient"/><linearGradient id="linear-gradient-46" x1="25.39" y1="-10.15" x2="27.02" y2="-10.15" gradientTransform="matrix(0.56, 0.83, -0.83, 0.56, -0.53, -10.38)" xlink:href="#linear-gradient"/><linearGradient id="linear-gradient-47" x1="24.87" y1="-7.75" x2="26.49" y2="-7.75" gradientTransform="matrix(0.67, 0.74, -0.74, 0.67, -1.27, -9.32)" xlink:href="#linear-gradient"/><linearGradient id="linear-gradient-48" x1="23.79" y1="-6.15" x2="25.42" y2="-6.15" gradientTransform="matrix(0.77, 0.64, -0.64, 0.77, -2.14, -7.48)" xlink:href="#linear-gradient"/><linearGradient id="linear-gradient-49" x1="22.24" y1="-3.7" x2="23.87" y2="-3.7" gradientTransform="translate(-1.99 -6.25) rotate(32)" xlink:href="#linear-gradient"/><linearGradient id="linear-gradient-50" x1="20.31" y1="-1.68" x2="21.94" y2="-1.68" gradientTransform="translate(-1.69 -4.87) rotate(24)" xlink:href="#linear-gradient"/><linearGradient id="linear-gradient-51" x1="17.49" y1="-0.58" x2="18.99" y2="-0.58" gradientTransform="translate(-0.66 -2.72) rotate(16)" xlink:href="#linear-gradient"/><linearGradient id="linear-gradient-52" x1="5.42" y1="11.35" x2="23.18" y2="11.35" gradientUnits="userSpaceOnUse"><stop offset="0.02" stop-color="#f07e1e"/><stop offset="0.02" stop-color="#f38d1b"/><stop offset="0.04" stop-color="#f7a317"/><stop offset="0.06" stop-color="#fab413"/><stop offset="0.08" stop-color="#fcbf11"/><stop offset="0.11" stop-color="#fec60f"/><stop offset="0.19" stop-color="#fec80f"/><stop offset="0.24" stop-color="#fdc310"/><stop offset="0.3" stop-color="#fab414"/><stop offset="0.34" stop-color="#f7a717"/><stop offset="0.36" stop-color="#f6a018"/><stop offset="0.39" stop-color="#f38e19"/><stop offset="0.43" stop-color="#ee6f1c"/><stop offset="0.44" stop-color="#ed6a1c"/><stop offset="0.45" stop-color="#ee711c"/><stop offset="0.49" stop-color="#f2891b"/><stop offset="0.52" stop-color="#f4981b"/><stop offset="0.55" stop-color="#f59d1b"/><stop offset="0.71" stop-color="#fd1"/><stop offset="0.77" stop-color="#fff"/><stop offset="0.81" stop-color="#ffef86"/><stop offset="0.88" stop-color="#f8ab18"/></linearGradient></defs><title>3nd</title><path class="cls-1" d="M14.06,7.37a28.82,28.82,0,0,1-2.82,22.28c-.07.11-2.4-4.58-2.4-4.58s-6,2.07-5.63,1.5C10.61,14,9,5.65,9,5.65Z"/><path class="cls-2" d="M8.84,25.07s1.65,3.33,2.22,4.31a26.84,26.84,0,0,0,2.66-20L9.13,7.69c0,.28,0,.57,0,.9C9.24,11,9,17.64,3.49,26.66A51.68,51.68,0,0,0,8.84,25.07Z"/><path class="cls-3" d="M13.8,12.9l-.56.11L10,13.62,10,14V14a27.23,27.23,0,0,1-4.2,11.68l-.31.46c1.58-.47,3.4-1.1,3.4-1.1s.49,1,1,2.06l.14-.27a31.61,31.61,0,0,0,3.75-13.39Z"/><path class="cls-4" d="M14.13,22.82a29.73,29.73,0,0,0,.62-12.48l-.48.19A28.44,28.44,0,0,0,14.13,22.82Z"/><path class="cls-5" d="M14.15,7.88a28.82,28.82,0,0,0,4.94,21.91C19.17,29.9,21,25,21,25s6.14,1.5,5.75,1C18.22,14.17,19.06,5.69,19.06,5.69Z"/><path class="cls-6" d="M21,25a51.32,51.32,0,0,0,5.47,1.08c-8.3-11.49-7.83-19.47-7.83-19.47L14.09,8.54a29.28,29.28,0,0,0,5.18,20.9C19.76,28.33,21,25,21,25Z"/><path class="cls-7" d="M24.52,25.78l-.35-.43a26,26,0,0,1-4.23-7.58,26.09,26.09,0,0,1-.83-2.69c-.09-.33-.15-.59-.18-.76s0-.16,0-.2a.31.31,0,0,0,0-.07l-.05-.34-3.88-.35.08.56a31.7,31.7,0,0,0,5,13l.17.26C20.64,26,21,25,21,25S22.91,25.46,24.52,25.78Z"/><path class="cls-4" d="M20,18.78l-.13.12-1,.72-1.08.57-1.15.42-1.19.25L14.23,21,13,20.86l-1.19-.25-1.15-.42-1.08-.57-.93-.68c-.12.68-.27,1.39-.46,2.14a2.45,2.45,0,0,1,.45.14l-.1.19s-.21.4.52.41a3.85,3.85,0,0,1,.89.09l-.07.2s-.15.42.57.33a4.53,4.53,0,0,1,.9,0l0,.22s-.1.44.61.25a3.49,3.49,0,0,1,.88-.16v.21s0,.45.64.16a5.08,5.08,0,0,1,.85-.28l0,.22s0,.45.66.07a4,4,0,0,1,.8-.4l.05.21s.09.44.66,0a4.26,4.26,0,0,1,.74-.51l.07.21s.16.42.66-.11a4,4,0,0,1,.66-.61l.1.19s.21.4.63-.2a4.61,4.61,0,0,1,.57-.69l.13.17s.27.37.6-.29a.41.41,0,0,1,.05-.09C20.41,20.18,20.19,19.46,20,18.78Z"/><path class="cls-8" d="M22.8,12.73l2.07.2s.45.05.19-.64a3.05,3.05,0,0,1-.27-1L23,11.13Z"/><path class="cls-9" d="M22.94,11.51,25,11.42s.45,0,.1-.66a3.23,3.23,0,0,1-.41-.95l-1.82.08Z"/><path class="cls-10" d="M16.26,2.71,16.54.65S16.6.2,15.9.44a3.38,3.38,0,0,1-1,.24c-.1.74-.23,1.81-.23,1.81Z"/><path class="cls-11" d="M15.05,2.53,15,.45S15,0,14.37.33a3,3,0,0,1-.95.37c0,.76,0,1.83,0,1.83Z"/><path class="cls-12" d="M13.81,2.52,13.51.46s-.07-.45-.67,0a2.92,2.92,0,0,1-.89.5c.1.75.27,1.81.27,1.81Z"/><path class="cls-13" d="M12.59,2.68,12,.68s-.12-.44-.66.07a3.15,3.15,0,0,1-.82.62c.21.72.52,1.75.52,1.75Z"/><path class="cls-14" d="M11.41,3l-.87-1.89s-.18-.41-.64.16A3,3,0,0,1,9.18,2c.3.69.75,1.67.75,1.67Z"/><path class="cls-15" d="M10.28,3.49,9.16,1.74s-.24-.39-.62.24a2.7,2.7,0,0,1-.61.82l1,1.55Z"/><path class="cls-16" d="M9.23,4.14,7.88,2.55s-.3-.35-.58.33a2.91,2.91,0,0,1-.5.9L8,5.17Z"/><path class="cls-17" d="M8.28,4.92,6.72,3.54s-.34-.31-.53.4a3.14,3.14,0,0,1-.36,1c.56.51,1.37,1.21,1.37,1.21Z"/><path class="cls-18" d="M7.44,5.82,5.71,4.67s-.38-.25-.47.48a3.32,3.32,0,0,1-.22,1l1.52,1Z"/><path class="cls-19" d="M6.74,6.84l-1.87-.9s-.41-.2-.4.54a3.41,3.41,0,0,1-.08,1L6,8.29Z"/><path class="cls-20" d="M6.19,7.94l-2-.63s-.43-.14-.32.59a2.9,2.9,0,0,1,.06,1l1.75.55Z"/><path class="cls-21" d="M5.8,9.1l-2-.34s-.45-.08-.23.62a3.16,3.16,0,0,1,.2,1l1.8.3Z"/><path class="cls-22" d="M5.58,10.31l-2.09-.05s-.45,0-.14.65a2.88,2.88,0,0,1,.34,1l1.83,0Z"/><path class="cls-23" d="M5.52,11.54l-2.07.24s-.45.05-.05.66a2.83,2.83,0,0,1,.47.92l1.82-.21Z"/><path class="cls-24" d="M5.64,12.77l-2,.52s-.44.11,0,.66a3,3,0,0,1,.58.84C5,14.61,6,14.33,6,14.33Z"/><path class="cls-25" d="M5.92,14,4,14.76s-.42.17.13.65a3.41,3.41,0,0,1,.71.75l1.69-.7Z"/><path class="cls-26" d="M6.37,15.11,4.58,16.17s-.39.23.22.62a2.91,2.91,0,0,1,.8.65l1.58-.93Z"/><path class="cls-27" d="M7,16.19,5.35,17.48s-.36.28.31.59a3,3,0,0,1,.88.53L8,17.46Z"/><path class="cls-28" d="M7.72,17.16,6.29,18.67s-.31.33.39.54a3,3,0,0,1,.94.4c.53-.54,1.26-1.33,1.26-1.33Z"/><path class="cls-29" d="M8.6,18,7.39,19.72s-.26.37.46.48a3,3,0,0,1,1,.26C9.29,19.85,9.9,19,9.9,19Z"/><path class="cls-30" d="M9.59,18.76l-1,1.85s-.22.4.52.41a3.07,3.07,0,0,1,1,.12L11,19.52Z"/><path class="cls-31" d="M10.67,19.35l-.7,2s-.15.43.58.34a2.72,2.72,0,0,1,1,0l.61-1.73Z"/><path class="cls-32" d="M11.82,19.78l-.41,2s-.1.45.61.25a3.25,3.25,0,0,1,1-.16l.36-1.79Z"/><path class="cls-33" d="M13,20.05l-.12,2.08s0,.45.64.16a3,3,0,0,1,1-.3c.05-.75.11-1.83.11-1.83Z"/><path class="cls-34" d="M14.25,20.15l.16,2.07s0,.46.67.08a2.85,2.85,0,0,1,.92-.44C16,21.11,15.86,20,15.86,20Z"/><path class="cls-35" d="M15.48,20.08l.45,2s.09.44.66,0a3,3,0,0,1,.86-.56c-.15-.74-.39-1.79-.39-1.79Z"/><path class="cls-36" d="M16.69,19.83l.72,2s.16.43.66-.11a3.52,3.52,0,0,1,.77-.68c-.26-.71-.64-1.71-.64-1.71Z"/><path class="cls-37" d="M17.85,19.42l1,1.83s.21.4.63-.2a3.21,3.21,0,0,1,.67-.78c-.35-.66-.87-1.6-.87-1.6Z"/><path class="cls-38" d="M18.94,18.85l1.24,1.68s.26.37.6-.29a3.13,3.13,0,0,1,.55-.86c-.44-.61-1.09-1.47-1.09-1.47Z"/><path class="cls-39" d="M19.94,18.14l1.46,1.49s.32.32.55-.37a2.69,2.69,0,0,1,.44-.93C21.86,17.78,21.1,17,21.1,17Z"/><path class="cls-40" d="M20.84,17.3l1.65,1.26s.36.28.49-.44a3.07,3.07,0,0,1,.3-1c-.59-.47-1.45-1.11-1.45-1.11Z"/><path class="cls-41" d="M21.61,16.33l1.81,1s.39.23.43-.51a3.33,3.33,0,0,1,.15-1c-.65-.38-1.59-.9-1.59-.9Z"/><path class="cls-42" d="M22.23,15.27l1.94.77s.42.17.35-.57a3,3,0,0,1,0-1l-1.7-.67Z"/><path class="cls-43" d="M22.7,14.14l2,.48s.44.11.27-.6a3.59,3.59,0,0,1-.13-1.09L23,12.76Z"/><path class="cls-44" d="M23.13,10.49l2-.38s.45-.08,0-.66a3.49,3.49,0,0,1-.53-.88l-1.79.33Z"/><path class="cls-45" d="M22.92,9.28l2-.66s.43-.14-.09-.66a3.25,3.25,0,0,1-.65-.8l-1.73.58Z"/><path class="cls-46" d="M22.55,8.1l1.87-.92s.41-.2-.18-.64a3.12,3.12,0,0,1-.75-.7l-1.64.81Z"/><path class="cls-47" d="M22,7l1.71-1.18s.38-.25-.27-.61a3.25,3.25,0,0,1-.84-.58l-1.5,1Z"/><path class="cls-48" d="M21.35,6l1.53-1.4s.34-.31-.35-.57a3.21,3.21,0,0,1-.91-.46c-.56.5-1.35,1.24-1.35,1.24Z"/><path class="cls-49" d="M20.53,5l1.33-1.6s.29-.35-.43-.52a3.24,3.24,0,0,1-1-.33L19.3,4Z"/><path class="cls-50" d="M19.6,4.24l1.09-1.77s.24-.39-.5-.45a3.32,3.32,0,0,1-1-.19c-.4.64-1,1.56-1,1.56Z"/><path class="cls-51" d="M18.56,3.58l.83-1.91s.19-.42-.55-.38a2.67,2.67,0,0,1-1-.05c-.31.69-.73,1.68-.73,1.68Z"/><path class="cls-52" d="M17.44,3.06l.56-2s.12-.44-.6-.29a2.86,2.86,0,0,1-.89.1c-.21.72-.46,1.81-.46,1.81Z"/><path class="cls-53" d="M14.3,2.53a9.08,9.08,0,1,0,9.08,9.08A9.08,9.08,0,0,0,14.3,2.53Zm0,16.91a7.83,7.83,0,1,1,7.83-7.83A7.83,7.83,0,0,1,14.3,19.44Z"/><path class="cls-54" d="M14.3,19.18a7.83,7.83,0,1,1,7.83-7.83A7.83,7.83,0,0,1,14.3,19.18Z"/><path class="cls-55" d="M14.3,4.44a7.23,7.23,0,0,1,7.21,6.77c0-.14,0-.29,0-.44a7.22,7.22,0,0,0-14.43,0c0,.15,0,.3,0,.44A7.22,7.22,0,0,1,14.3,4.44Z"/><path class="cls-56" d="M14.3,2.47a8.88,8.88,0,1,0,8.88,8.88A8.89,8.89,0,0,0,14.3,2.47ZM14.3,19A7.66,7.66,0,1,1,22,11.35,7.66,7.66,0,0,1,14.3,19Z"/><path class="cls-57" d="M9.12,4.53A8.84,8.84,0,0,1,23,12,8.81,8.81,0,0,0,5.56,9.81,8.78,8.78,0,0,1,9.12,4.53Z"/><path class="cls-58" d="M9.81,5.16a7.67,7.67,0,0,1,12,6.49,7.54,7.54,0,0,0-1.35-5A7.64,7.64,0,0,0,6.72,9.74,7.66,7.66,0,0,1,9.81,5.16Z"/><path class="cls-59" d="M18.67,17.63A7.67,7.67,0,0,1,6.61,11.15a7.64,7.64,0,0,0,15.15,1.91A7.61,7.61,0,0,1,18.67,17.63Z"/><path class="cls-53" d="M19.49,18.2A8.85,8.85,0,0,1,5.58,10.72a8.81,8.81,0,0,0,17.47,2.2A8.82,8.82,0,0,1,19.49,18.2Z"/><path d="M9.37,9l.44-.59A1.62,1.62,0,0,1,11,7.83a1.28,1.28,0,0,1,1.41,1.24,1,1,0,0,1-.29.69,4,4,0,0,1-.66.5,1.53,1.53,0,0,1,1.38,1.43c0,1.52-1.79,2.16-2.45,2.16a1.5,1.5,0,0,1-1-.33.41.41,0,0,1-.14-.3.56.56,0,0,1,.22-.36.18.18,0,0,1,.24,0,1.67,1.67,0,0,0,1.15.5c.67,0,1.15-.51,1.15-1.41a1.15,1.15,0,0,0-1.23-1.19,2.68,2.68,0,0,0-.62.1l-.07-.28c.83-.27,1.5-.64,1.5-1.33a.81.81,0,0,0-.89-.86,1.51,1.51,0,0,0-1.17.73Z"/><path d="M15.2,13.74H13.6v-.2c.44,0,.48-.08.48-.53V11.56c0-.46,0-.48-.43-.53v-.17a3.92,3.92,0,0,0,1-.29v.77c.24-.37.54-.75.89-.75a.36.36,0,0,1,.4.34.46.46,0,0,1-.24.38.15.15,0,0,1-.18,0,.42.42,0,0,0-.31-.18c-.15,0-.41.22-.56.57V13c0,.46,0,.5.57.54Z"/><path d="M19.53,13.56a7.46,7.46,0,0,0-1.09.26v-.45l-.43.25a1.24,1.24,0,0,1-.55.2,1.45,1.45,0,0,1-1.3-1.53A1.76,1.76,0,0,1,18,10.59a1.45,1.45,0,0,1,.47.08v-1c0-.44,0-.46-.54-.5V9A7.24,7.24,0,0,0,19,8.72v4.21c0,.36,0,.4.3.42l.23,0Zm-1.09-2.34a.86.86,0,0,0-.73-.36c-.33,0-.93.23-.93,1.23a1.17,1.17,0,0,0,1,1.3,1.25,1.25,0,0,0,.69-.25Z"/></svg>