<svg id="Livello_1" data-name="Livello 1" xmlns="http://www.w3.org/2000/svg" viewBox="0 0 30.67 23.17"><defs><style>.cls-1{fill:#fff;}</style></defs><title>Tavola disegno 1</title><g id="uno"><path class="cls-1" d="M10.84,22.78a11,11,0,0,1-4.5-1A.64.64,0,0,1,6,21.15,81.76,81.76,0,0,0,6.41,6.28a10.16,10.16,0,0,0-3,6.3.64.64,0,0,1-.63.6.63.63,0,0,1-.65-.57S1.8,9.93.57,8.74a.66.66,0,0,1-.16-.68A11.09,11.09,0,0,1,8.74.88.69.69,0,0,1,9.26,1a.63.63,0,0,1,.24.49,117.39,117.39,0,0,0,1.15,12.72c.38,2.59.84,5.14,1.41,7.77a.61.61,0,0,1-.12.52.64.64,0,0,1-.47.26ZM7.31,20.84a9.67,9.67,0,0,0,3.33.65c-.51-2.39-.92-4.71-1.27-7.08A116.3,116.3,0,0,1,8.25,2.32,9.83,9.83,0,0,0,1.76,8.13,5.91,5.91,0,0,1,2.7,9.74,12.22,12.22,0,0,1,6.58,4.39a.66.66,0,0,1,.65-.06.65.65,0,0,1,.37.53A85,85,0,0,1,7.31,20.84Z"/></g><g id="apostrofo"><path class="cls-1" d="M23,3.76a3.38,3.38,0,0,1-1,2.49,8.47,8.47,0,0,0-1.09-2,10.33,10.33,0,0,0-1.54-1.63,1.08,1.08,0,0,1-.35-.57.78.78,0,0,1,0-.13A1.32,1.32,0,0,1,19.49,1,1.53,1.53,0,0,1,20.71.73,3.16,3.16,0,0,1,23,3.76Z"/><path class="cls-1" d="M21.93,6.8l-.17-.44a8.86,8.86,0,0,0-1.06-1.9,9.88,9.88,0,0,0-1.5-1.58,1.37,1.37,0,0,1-.44-.75.84.84,0,0,1,0-.19A1.63,1.63,0,0,1,19.28.78,1.71,1.71,0,0,1,20.75.41a3.46,3.46,0,0,1,2.61,3.35,3.69,3.69,0,0,1-1.09,2.72ZM20.41,1a1,1,0,0,0-.7.23,1,1,0,0,0-.32.67V2a.71.71,0,0,0,.24.38,10.73,10.73,0,0,1,1.59,1.68,9.54,9.54,0,0,1,.93,1.57,3.28,3.28,0,0,0,.57-1.89,2.83,2.83,0,0,0-2-2.71A1.23,1.23,0,0,0,20.41,1Z"/></g><g id="s"><path class="cls-1" d="M23.39,10h0a.91.91,0,0,1,1.17,0,3.27,3.27,0,0,0,1.44.81c.82.17,1.3-.06,1.41-.58s-.34-.83-1-1.31l-1-.72A2.61,2.61,0,0,1,24.09,5.5c.31-1.44,1.85-2.32,3.66-1.93a4.14,4.14,0,0,1,2,1,.83.83,0,0,1-.05,1.24l0,0a.83.83,0,0,1-1.07,0,2.67,2.67,0,0,0-1.17-.57c-.68-.15-1.17,0-1.28.54s.41.85,1.11,1.32l1,.68a2.45,2.45,0,0,1,1.22,2.74c-.31,1.45-1.78,2.44-3.86,2a5,5,0,0,1-2.26-1.17A.9.9,0,0,1,23.39,10Z"/><path class="cls-1" d="M26.57,13a4.68,4.68,0,0,1-1-.12,5.3,5.3,0,0,1-2.41-1.24,1.21,1.21,0,0,1,.07-1.86h0a1.22,1.22,0,0,1,1.59.06,3,3,0,0,0,1.29.72,1.3,1.3,0,0,0,.77,0,.4.4,0,0,0,.25-.32c.06-.29-.15-.46-.8-.91l-.1-.06-1-.73a2.92,2.92,0,0,1-1.38-3.08,2.78,2.78,0,0,1,1.43-1.87,3.83,3.83,0,0,1,2.61-.31,4.49,4.49,0,0,1,2.11,1.11,1.13,1.13,0,0,1,.36.87,1.16,1.16,0,0,1-.43.86l0,0a1.18,1.18,0,0,1-1.49,0,2.38,2.38,0,0,0-1-.51,1.2,1.2,0,0,0-.66,0,.39.39,0,0,0-.24.29c-.05.26.21.47.86.9l.12.08,1,.69a2.75,2.75,0,0,1,1.36,3.07,2.88,2.88,0,0,1-1.43,1.92A3.6,3.6,0,0,1,26.57,13Zm-3-2.72a.6.6,0,0,0-.23.44.58.58,0,0,0,.19.45,4.63,4.63,0,0,0,2.11,1.08A3.34,3.34,0,0,0,28,12a2.26,2.26,0,0,0,1.11-1.5,2.12,2.12,0,0,0-1.09-2.4l-1.12-.76c-.69-.46-1.29-.86-1.14-1.58A1,1,0,0,1,26.41,5a1.81,1.81,0,0,1,1.05,0,3,3,0,0,1,1.31.65.51.51,0,0,0,.66,0l0,0a.47.47,0,0,0,.19-.38.48.48,0,0,0-.15-.38,3.82,3.82,0,0,0-1.81-1,3.17,3.17,0,0,0-2.17.25,2.11,2.11,0,0,0-1.1,1.44A2.31,2.31,0,0,0,25.52,8l1.13.79c.66.45,1.23.84,1.07,1.58a1,1,0,0,1-.62.77,1.88,1.88,0,0,1-1.17.05,3.49,3.49,0,0,1-1.58-.88.6.6,0,0,0-.76,0Z"/></g><g id="zeroI"><path class="cls-1" d="M18,10.5c-.62-3.16-2.55-5.43-4.31-5.09S11,8.6,11.63,11.75s2.55,5.43,4.31,5.09S18.64,13.65,18,10.5Z"/></g><g id="ZeroE"><path class="cls-1" d="M14.46,21a6.05,6.05,0,0,1-4.07-1.4l-.16-.14,0-.22c-.31-1.61-.58-3.23-.82-4.83-.49-3.38-.84-6.83-1-10.25l0-.34.26-.19A7.48,7.48,0,0,1,13.19,2a7.89,7.89,0,0,1,5.18,1.8h0a9.89,9.89,0,0,1,3,4.79,11.7,11.7,0,0,1,.5,3.27,11,11,0,0,1-.45,3.36,8,8,0,0,1-2.87,4.53A6.94,6.94,0,0,1,15.13,21C15,21,14.72,21,14.46,21Zm-3.05-2.22a5.32,5.32,0,0,0,3.6.9,5.63,5.63,0,0,0,2.79-1,6.8,6.8,0,0,0,2.39-3.85,9.78,9.78,0,0,0,.39-3,10.13,10.13,0,0,0-.44-2.9,8.66,8.66,0,0,0-2.62-4.2h0a6.54,6.54,0,0,0-4.3-1.48A6.27,6.27,0,0,0,9.64,4.42c.2,3.27.54,6.56,1,9.8C10.87,15.73,11.13,17.26,11.41,18.78Z"/></g></svg>