<svg id="Livello_1" data-name="Livello 1" xmlns="http://www.w3.org/2000/svg" viewBox="0 0 30.67 23.17"><defs><style>.cls-1{fill:#fff;}</style></defs><title>Tavola disegno 1</title><g id="uno"><path class="cls-1" d="M10.79,22.9a11,11,0,0,1-4.54-1,.65.65,0,0,1-.38-.69,81.58,81.58,0,0,0,.44-15,10.3,10.3,0,0,0-3,6.36.64.64,0,0,1-.63.61h0A.65.65,0,0,1,2,12.63S1.66,9.91.42,8.71A.68.68,0,0,1,.26,8,11.22,11.22,0,0,1,8.67.77.71.71,0,0,1,9.2.9a.63.63,0,0,1,.24.49A117.46,117.46,0,0,0,10.6,14.25c.38,2.62.85,5.19,1.43,7.84a.69.69,0,0,1-.12.54.65.65,0,0,1-.48.25Zm-3.56-2a9.86,9.86,0,0,0,3.36.67c-.51-2.42-.93-4.77-1.28-7.16A118.63,118.63,0,0,1,8.17,2.23,9.9,9.9,0,0,0,1.62,8.09a6.5,6.5,0,0,1,.95,1.63,12.33,12.33,0,0,1,3.92-5.4.64.64,0,0,1,.65-.07.65.65,0,0,1,.38.54A85.79,85.79,0,0,1,7.23,20.93Z"/></g><g id="apostrofo"><path class="cls-1" d="M23.12,3.68a3.4,3.4,0,0,1-1,2.51,8.64,8.64,0,0,0-1.1-2,11,11,0,0,0-1.56-1.64A1.06,1.06,0,0,1,19.11,2a.78.78,0,0,1,0-.13,1.34,1.34,0,0,1,.43-.93,1.59,1.59,0,0,1,1.24-.3A3.22,3.22,0,0,1,23.12,3.68Z"/><path class="cls-1" d="M22,6.75l-.18-.44a9.07,9.07,0,0,0-1.06-1.93,10.52,10.52,0,0,0-1.52-1.59A1.41,1.41,0,0,1,18.79,2a1.67,1.67,0,0,1,0-.19A1.61,1.61,0,0,1,19.32.67,1.77,1.77,0,0,1,20.81.29a3.53,3.53,0,0,1,2.64,3.39,3.77,3.77,0,0,1-1.1,2.75ZM20.46.92a1.06,1.06,0,0,0-.71.23,1,1,0,0,0-.32.68v.09a.78.78,0,0,0,.24.38A11,11,0,0,1,21.28,4a9.1,9.1,0,0,1,.94,1.59,3.27,3.27,0,0,0,.58-1.91A2.86,2.86,0,0,0,20.72.94,1.18,1.18,0,0,0,20.46.92Z"/></g><g id="s"><path class="cls-1" d="M23.47,10h0a.92.92,0,0,1,1.19,0,3.3,3.3,0,0,0,1.45.81c.83.18,1.31-.06,1.42-.58s-.34-.84-1-1.32l-1-.74a2.61,2.61,0,0,1-1.26-2.77c.31-1.46,1.86-2.35,3.69-2a4.31,4.31,0,0,1,2,1,.84.84,0,0,1-.05,1.26l0,0a.83.83,0,0,1-1.08,0,2.71,2.71,0,0,0-1.19-.58c-.68-.15-1.18,0-1.29.55s.42.86,1.12,1.33l1,.69a2.49,2.49,0,0,1,1.23,2.77c-.31,1.46-1.8,2.47-3.9,2a5,5,0,0,1-2.28-1.18A.91.91,0,0,1,23.47,10Z"/><path class="cls-1" d="M26.68,13a5.51,5.51,0,0,1-1.05-.11,5.31,5.31,0,0,1-2.43-1.26,1.23,1.23,0,0,1,.07-1.88,1.23,1.23,0,0,1,1.61.06,2.91,2.91,0,0,0,1.3.73c.61.13,1,0,1-.33s-.14-.46-.81-.92l-.1-.07-1-.73a3,3,0,0,1-1.39-3.11,2.78,2.78,0,0,1,1.44-1.89A3.8,3.8,0,0,1,28,3.17a4.45,4.45,0,0,1,2.13,1.12,1.13,1.13,0,0,1,.36.87A1.17,1.17,0,0,1,30,6l0,0a1.16,1.16,0,0,1-1.5,0,2.34,2.34,0,0,0-1-.51,1.2,1.2,0,0,0-.66,0,.39.39,0,0,0-.24.29c-.06.26.21.47.87.91l.11.08,1,.69a2.81,2.81,0,0,1,1.37,3.11,2.9,2.9,0,0,1-1.44,1.94A3.69,3.69,0,0,1,26.68,13Zm-2.63-2.87a.67.67,0,0,0-.38.13h0a.59.59,0,0,0-.22.45.55.55,0,0,0,.18.44,4.77,4.77,0,0,0,2.14,1.1A3.34,3.34,0,0,0,28.16,12a2.27,2.27,0,0,0,1.12-1.51A2.14,2.14,0,0,0,28.18,8l-1.13-.77c-.7-.46-1.3-.86-1.15-1.59a1,1,0,0,1,.63-.75,1.82,1.82,0,0,1,1,0,3,3,0,0,1,1.33.66.54.54,0,0,0,.67,0l0,0a.51.51,0,0,0,.19-.39.48.48,0,0,0-.15-.38,4,4,0,0,0-1.83-1,3.22,3.22,0,0,0-2.19.25A2.17,2.17,0,0,0,24.5,5.5a2.33,2.33,0,0,0,1.13,2.44l1.14.8c.66.46,1.24.85,1.08,1.59-.06.28-.36,1.15-1.81.84a3.56,3.56,0,0,1-1.6-.9A.58.58,0,0,0,24.05,10.12Z"/></g><g id="zeroI"><path class="cls-1" d="M15.59,17.58c-2,0-4-2.38-4.64-5.7-.7-3.6.45-6.75,2.61-7.17S18,6.77,18.68,10.36a9.28,9.28,0,0,1-.16,4.6,3.46,3.46,0,0,1-2.45,2.57A2.61,2.61,0,0,1,15.59,17.58ZM14,6a.93.93,0,0,0-.23,0c-.61.12-1.14.74-1.45,1.7a7.93,7.93,0,0,0-.13,3.94,8.07,8.07,0,0,0,1.6,3.6,2.27,2.27,0,0,0,2,1,2.26,2.26,0,0,0,1.46-1.7,8.05,8.05,0,0,0,.13-3.94A8,8,0,0,0,15.8,7,2.51,2.51,0,0,0,14,6Z"/></g><g id="ZeroE"><path class="cls-1" d="M14.45,21.09a6.11,6.11,0,0,1-4.11-1.41l-.17-.15,0-.21c-.31-1.62-.58-3.27-.82-4.88C8.81,11,8.46,7.54,8.26,4.09l0-.37.27-.18,0,0h0a7.64,7.64,0,0,1,4.62-1.64A8,8,0,0,1,18.4,3.68h0a10,10,0,0,1,3,4.84,12,12,0,0,1,.5,3.3,11,11,0,0,1-.46,3.4,8.07,8.07,0,0,1-2.89,4.57,7.08,7.08,0,0,1-3.47,1.28Zm-3.08-2.24a5.35,5.35,0,0,0,3.64.92,5.78,5.78,0,0,0,2.82-1,6.89,6.89,0,0,0,2.41-3.89,9.6,9.6,0,0,0,.39-3,10.28,10.28,0,0,0-.44-2.94,8.68,8.68,0,0,0-2.65-4.24,6.61,6.61,0,0,0-4.34-1.5A6.51,6.51,0,0,0,9.58,4.34c.2,3.31.54,6.64,1,9.91C10.82,15.77,11.08,17.32,11.37,18.85Z"/></g></svg>