<svg id="Livello_1" data-name="Livello 1" xmlns="http://www.w3.org/2000/svg" viewBox="0 0 841.89 595.28"><defs><style>.cls-1,.cls-2{fill:none;stroke:#fff;stroke-width:5px;}.cls-1{stroke-miterlimit:10;}.cls-2{stroke-linejoin:round;}</style></defs><title>Tavola disegno 1</title><path class="cls-1" d="M360.37,461.23q-4.56.25-9.19.26a161,161,0,0,1-65.71-13.93c12.87-93.53,10-195.09,5.49-253.45,0,0-60.28,44.38-64.94,118.38,0,0-5.24-44.95-27.2-66.2A161.76,161.76,0,0,1,320.48,141.4,1804.72,1804.72,0,0,0,338.34,340C344.59,382.79,352.1,423.1,360.37,461.23Z"/><path class="cls-2" d="M360.37,461.23q-4.56.25-9.19.26a161,161,0,0,1-65.71-13.93c12.87-93.53,10-195.09,5.49-253.45,0,0-60.28,44.38-64.94,118.38,0,0-5.24-44.95-27.2-66.2A161.76,161.76,0,0,1,320.48,141.4,1804.72,1804.72,0,0,0,338.34,340C344.59,382.79,352.1,423.1,360.37,461.23Z"/><path class="cls-1" d="M350.89,414.6h0M322.34,181.92h0"/><path class="cls-1" d="M535.59,181.27c0,15.91-6.05,30-15.32,38.52a137.41,137.41,0,0,0-17-30.7c-6.85-9.37-15.29-17.54-23.93-25.28-1.14-1-4.57-4-5.37-8.8a13.48,13.48,0,0,1-.16-2.12,20.41,20.41,0,0,1,6.63-14.25c6.9-6.16,16.62-4.83,18.95-4.51C518.74,136.77,535.59,160.11,535.59,181.27Z"/><path class="cls-1" d="M541,278.24h0a14.11,14.11,0,0,1,18.24.63c6.68,6.2,14.53,10.83,22.31,12.5,12.76,2.73,20.07-1,21.79-9,1.82-8.51-5.28-12.88-16.05-20.27l-16-11.24c-12.78-8.7-23.59-23-19.39-42.68,4.8-22.4,28.63-36,56.77-30a64.64,64.64,0,0,1,30.41,16,12.86,12.86,0,0,1-.81,19.28l-.42.34a13,13,0,0,1-16.61-.25,40.73,40.73,0,0,0-18.22-9c-10.54-2.25-18.18.7-19.84,8.43-1.77,8.29,6.43,13.19,17.22,20.41l15.73,10.67c15.07,10.2,23,23.4,18.94,42.5-4.81,22.45-27.68,37.89-59.89,31a77,77,0,0,1-35.1-18.05A14,14,0,0,1,541,278.24Z"/><path class="cls-1" d="M462.61,280.81c-9.59-49-39.55-84.3-66.93-78.94s-41.81,49.39-32.23,98.35,39.56,84.31,66.94,78.95S472.2,329.77,462.61,280.81Z"/><path class="cls-1" d="M461.47,183.73c-10.84-9.4-37.75-26.39-73.57-25.49-6.26.16-39.69,1.12-65.56,23.67h0c2.81,49.54,7.87,102.46,16,158.09q5.64,38.61,12.55,74.59l0,0c23.43,21.25,57.15,19.48,65.91,18.7a97.82,97.82,0,0,0,48.25-17.75c26.94-19.4,35.39-47.29,40.75-65a158.72,158.72,0,0,0,6.54-49.16,170.75,170.75,0,0,0-7.23-47.92C500,236.81,489.84,208.34,461.47,183.73Z"/></svg>