<svg id="Livello_1" data-name="Livello 1" xmlns="http://www.w3.org/2000/svg" viewBox="0 0 30.67 23.17"><defs><style>.cls-1{fill:#fff;}</style></defs><title>Tavola disegno 1</title><g id="LOGOOO"><g id="uno"><path class="cls-1" d="M10.73,22.73a10.91,10.91,0,0,1-4.48-.94.34.34,0,0,1-.19-.35,84.55,84.55,0,0,0,.41-16,11,11,0,0,0-3.68,7.16.32.32,0,0,1-.32.31.33.33,0,0,1-.34-.29S1.78,9.73.43,8.43a.35.35,0,0,1-.08-.35A11,11,0,0,1,8.64.94.31.31,0,0,1,8.9,1,.34.34,0,0,1,9,1.25,118.78,118.78,0,0,0,10.2,14.33c.39,2.67.87,5.28,1.46,8a.37.37,0,0,1-.06.27.38.38,0,0,1-.25.13Zm-4-1.45a10.17,10.17,0,0,0,4,.79h.2c-.55-2.58-1-5.08-1.38-7.64A120.5,120.5,0,0,1,8.38,1.67,10.4,10.4,0,0,0,1,8.11a6.86,6.86,0,0,1,1.37,2.65A11.34,11.34,0,0,1,4.46,6.62,12,12,0,0,1,6.55,4.48a.35.35,0,0,1,.34,0,.32.32,0,0,1,.19.27A86.91,86.91,0,0,1,6.75,21.28Z"/></g><g id="apostrofo"><path class="cls-1" d="M21.76,7l-.17-.45a9.06,9.06,0,0,0-1.08-1.95A11.41,11.41,0,0,0,19,3a1.35,1.35,0,0,1-.46-.77,1.67,1.67,0,0,1,0-.19A1.63,1.63,0,0,1,19,.84,1.78,1.78,0,0,1,20.56.46,3.56,3.56,0,0,1,23.23,3.9a3.79,3.79,0,0,1-1.11,2.78ZM20.21,1.09a1,1,0,0,0-.73.24,1,1,0,0,0-.32.69v.09a.68.68,0,0,0,.25.38A11.83,11.83,0,0,1,21,4.22,9.33,9.33,0,0,1,22,5.83a3.31,3.31,0,0,0,.58-1.93,2.91,2.91,0,0,0-2.1-2.79Z"/></g><g id="s"><path class="cls-1" d="M26.52,13.34a5,5,0,0,1-1.07-.12A5.37,5.37,0,0,1,23,12a1.19,1.19,0,0,1-.4-1,1.23,1.23,0,0,1,.48-1h0a1.26,1.26,0,0,1,1.63.06,3,3,0,0,0,1.32.75,1.46,1.46,0,0,0,.79,0,.44.44,0,0,0,.26-.33c.06-.3-.15-.47-.83-.93l-.1-.07-1.06-.75a3,3,0,0,1-1.41-3.15C24,3.91,25.81,3,27.8,3.37A4.65,4.65,0,0,1,30,4.51a1.18,1.18,0,0,1,.36.89,1.21,1.21,0,0,1-.43.88l0,0a1.19,1.19,0,0,1-1.52,0,2.4,2.4,0,0,0-1.06-.52c-.24,0-.82-.13-.92.3s.21.48.88.93l.12.08,1,.7a2.84,2.84,0,0,1,1.39,3.15,2.91,2.91,0,0,1-1.46,2A3.67,3.67,0,0,1,26.52,13.34Zm-2.68-2.91a.7.7,0,0,0-.38.13h0a.61.61,0,0,0-.22.45.6.6,0,0,0,.18.46,4.89,4.89,0,0,0,2.17,1.11c1.79.38,3.26-.36,3.56-1.79A2.18,2.18,0,0,0,28,8.32l-1.15-.78c-.71-.47-1.32-.88-1.16-1.61s.81-1,1.7-.81a3,3,0,0,1,1.35.66.53.53,0,0,0,.67,0l0,0a.53.53,0,0,0,0-.78,4,4,0,0,0-1.86-1c-1.62-.35-3.07.39-3.35,1.73a2.35,2.35,0,0,0,1.14,2.47L26.6,9c.68.46,1.26.86,1.1,1.62a1.06,1.06,0,0,1-.64.79,1.94,1.94,0,0,1-1.19.05,3.6,3.6,0,0,1-1.63-.9A.55.55,0,0,0,23.84,10.43Z"/></g><g id="zeroI"><path class="cls-1" d="M15.59,17.33a3.47,3.47,0,0,1-2.54-1.41,9.17,9.17,0,0,1-1.84-4.1,9.23,9.23,0,0,1,.16-4.5A3.2,3.2,0,0,1,13.6,4.93a3.21,3.21,0,0,1,3,1.38,9.12,9.12,0,0,1,1.84,4.1,9.07,9.07,0,0,1-.16,4.49A3.16,3.16,0,0,1,16,17.29,2.09,2.09,0,0,1,15.59,17.33ZM14,5.55a1.53,1.53,0,0,0-.3,0,2.58,2.58,0,0,0-1.73,2,8.34,8.34,0,0,0-.14,4.16,8.48,8.48,0,0,0,1.7,3.8,2.55,2.55,0,0,0,2.33,1.15c.76-.14,1.37-.83,1.73-1.94a8.35,8.35,0,0,0,.14-4.16,8.47,8.47,0,0,0-1.7-3.81A2.81,2.81,0,0,0,14,5.55Z"/></g><g id="ZeroE"><path class="cls-1" d="M14.43,20.9a5.84,5.84,0,0,1-3.94-1.35l-.09-.07,0-.11c-.31-1.64-.59-3.31-.83-4.94C9.05,11,8.69,7.45,8.49,4V3.81l.14-.13a7.38,7.38,0,0,1,4.52-1.63,7.79,7.79,0,0,1,5.09,1.76h0a9.91,9.91,0,0,1,3,4.76,11.33,11.33,0,0,1,.49,3.26,10.78,10.78,0,0,1-.44,3.35,8,8,0,0,1-2.82,4.46,6.71,6.71,0,0,1-3.35,1.23A6,6,0,0,1,14.43,20.9ZM11,19.13a5.74,5.74,0,0,0,4,1.09,6.14,6.14,0,0,0,3-1.12A7.23,7.23,0,0,0,20.62,15,9.84,9.84,0,0,0,21,11.84a10.59,10.59,0,0,0-.46-3.07,9.23,9.23,0,0,0-2.79-4.46,7,7,0,0,0-4.63-1.6,6.78,6.78,0,0,0-4,1.38c.2,3.41.55,6.86,1,10.24C10.44,15.92,10.71,17.54,11,19.13Z"/></g></g></svg>